<svg width="16" height="16" viewBox="0 0 16 16" fill="none" xmlns="http://www.w3.org/2000/svg">
<path d="M1.375 1.75722C1.375 1.55639 1.45478 1.36379 1.59679 1.22179C1.73879 1.07978 1.93139 1 2.13222 1H14.2478C14.4486 1 14.6412 1.07978 14.7832 1.22179C14.9252 1.36379 15.005 1.55639 15.005 1.75722V3.7154C15.005 3.91621 14.9252 4.10878 14.7831 4.25076L9.92631 9.10758C9.78429 9.24955 9.70449 9.44212 9.70444 9.64293V11.6011L6.67556 14.63V9.64293C6.67551 9.44212 6.59571 9.24955 6.45369 9.10758L1.59687 4.25076C1.45485 4.10878 1.37504 3.91621 1.375 3.7154V1.75722Z" stroke="black" stroke-linecap="round" stroke-linejoin="round"/>
</svg>
