<svg width="176" height="191" viewBox="0 0 176 191" fill="none" xmlns="http://www.w3.org/2000/svg">
<g clip-path="url(#clip0)">
<path d="M94.3674 20.0594C100.476 36.3923 120.467 33.9344 134.032 30.4458C137.285 29.5737 140.616 28.6222 143.552 26.9572C146.487 25.2922 148.946 22.5965 149.898 19.3458C150.929 15.6986 149.739 11.655 147.677 8.4836C145.773 5.55002 142.996 2.45786 140.061 0.554999C138.792 3.80573 134.27 4.04358 131.176 4.04358C126.813 4.04358 122.847 2.37858 118.801 1.18929C114.676 -3.39746e-06 110.233 -0.237861 106.108 0.872143C97.7786 2.85429 91.115 11.3379 94.3674 20.0594Z" fill="black"/>
<path d="M106.822 129.395C106.584 129.395 106.505 129.395 106.346 129.474L106.822 129.395Z" fill="black"/>
<path d="M106.822 129.395C106.584 129.395 106.505 129.395 106.346 129.474L106.822 129.395Z" fill="black"/>
<path d="M89.2109 49.871V34.5688C89.2109 21.5659 101.348 10.9415 116.183 10.9415C123.56 10.9415 130.303 13.558 135.222 17.8394C140.14 22.1209 143.155 27.988 143.155 34.4895V49.7917" stroke="black" stroke-width="2" stroke-miterlimit="10"/>
<path d="M143.155 66.4417V84.1224C143.155 97.1253 131.017 107.75 116.183 107.75C101.348 107.75 89.2109 97.1253 89.2109 84.1224V66.4417" stroke="black" stroke-width="2" stroke-miterlimit="10"/>
<path d="M100.159 71.9125C107.738 71.9125 113.882 65.7714 113.882 58.196C113.882 50.6206 107.738 44.4795 100.159 44.4795C92.579 44.4795 86.4346 50.6206 86.4346 58.196C86.4346 65.7714 92.579 71.9125 100.159 71.9125Z" stroke="black" stroke-width="2" stroke-miterlimit="10"/>
<path d="M132.128 71.9125C139.708 71.9125 145.852 65.7714 145.852 58.196C145.852 50.6206 139.708 44.4795 132.128 44.4795C124.548 44.4795 118.404 50.6206 118.404 58.196C118.404 65.7714 124.548 71.9125 132.128 71.9125Z" stroke="black" stroke-width="2" stroke-miterlimit="10"/>
<path d="M113.803 57.7996H118.563" stroke="black" stroke-width="4" stroke-miterlimit="10"/>
<path d="M127.21 105.609H127.289V130.426" stroke="black" stroke-width="2" stroke-miterlimit="10"/>
<path d="M107.457 130.108V106.243" stroke="black" stroke-width="2" stroke-miterlimit="10"/>
<path d="M100.158 61.3674C101.911 61.3674 103.331 59.9475 103.331 58.196C103.331 56.4444 101.911 55.0245 100.158 55.0245C98.4058 55.0245 96.9851 56.4444 96.9851 58.196C96.9851 59.9475 98.4058 61.3674 100.158 61.3674Z" fill="black"/>
<path d="M132.128 61.3674C133.881 61.3674 135.301 59.9475 135.301 58.196C135.301 56.4444 133.881 55.0245 132.128 55.0245C130.376 55.0245 128.955 56.4444 128.955 58.196C128.955 59.9475 130.376 61.3674 132.128 61.3674Z" fill="black"/>
<path d="M87.3863 63.3495H85.7997C84.0545 63.3495 82.4679 64.0631 81.2779 65.1731C80.1673 66.3624 79.4534 67.9481 79.4534 69.6924C79.4534 73.181 82.3092 76.0352 85.7997 76.0352H88.9729" stroke="black" stroke-width="2" stroke-miterlimit="10"/>
<path d="M144.9 63.3495H146.487C149.977 63.3495 152.833 66.2038 152.833 69.6924C152.833 71.4367 152.119 73.0224 150.929 74.2117C149.818 75.3217 148.232 76.0352 146.487 76.0352H143.313" stroke="black" stroke-width="2" stroke-miterlimit="10"/>
<path d="M89.0523 67.7896V71.5953H86.5138C85.4825 71.5953 84.6099 70.7231 84.6099 69.6924C84.6099 69.1374 84.8478 68.6617 85.1652 68.3446C85.4825 68.0274 85.9585 67.7896 86.5138 67.7896H89.0523Z" fill="black"/>
<path d="M143.313 71.5953V67.7896H145.852C146.883 67.7896 147.756 68.6617 147.756 69.6924C147.756 70.2474 147.518 70.7231 147.201 71.0403C146.883 71.3574 146.407 71.5953 145.852 71.5953H143.313Z" fill="black"/>
<path d="M116.183 71.2781C116.183 71.2781 112.216 77.621 118.563 76.0352" stroke="black" stroke-width="2" stroke-miterlimit="10" stroke-linecap="round"/>
<path d="M109.043 89.5931C109.043 89.5931 115.39 97.4425 124.116 89.5931" stroke="black" stroke-width="2" stroke-miterlimit="10" stroke-linecap="round"/>
<path d="M93.9707 41.9423C93.9707 41.9423 98.3338 37.5816 105.87 41.1495" stroke="black" stroke-width="3" stroke-miterlimit="10" stroke-linecap="round"/>
<path d="M138.395 41.9423C138.395 41.9423 134.032 37.5816 126.496 41.1495" stroke="black" stroke-width="3" stroke-miterlimit="10" stroke-linecap="round"/>
<path d="M89.0522 32.9037C89.0522 32.9037 78.1048 24.4201 82.8646 14.1129C87.6243 3.80569 102.697 9.35571 102.697 9.35571C102.697 9.35571 108.726 35.0444 89.0522 32.9037Z" fill="black"/>
<path d="M34.6326 96.2538C33.6807 93.1617 32.3321 91.6552 31.6181 87.1359C30.1109 78.0973 30.6662 69.4551 26.9377 69.7723C25.4305 69.9308 24.9545 71.5166 25.0338 72.3887L26.2237 86.6602C25.7478 88.3252 24.8752 87.6909 24.8752 87.6909C24.8752 87.6909 21.7813 75.0052 21.3847 72.7059C20.988 70.4858 19.8774 69.2173 18.3702 69.3758C15.7523 69.6137 16.7836 72.7851 17.0216 73.9744L19.7981 89.3559C20.0361 90.8624 18.4495 90.3866 18.4495 90.3866L12.2618 75.0052C11.5479 73.3401 10.1993 73.7366 10.1993 73.7366C7.74007 74.2916 8.69202 76.5116 8.69202 76.5116L14.0071 92.8445C14.0071 92.9238 14.0071 93.0031 14.0071 93.0824C14.0864 93.9545 12.9758 94.4302 12.4998 93.6374C10.8339 91.1002 7.58141 87.0566 4.88422 85.4709C3.53562 84.6781 2.58367 84.8366 2.02837 85.2331C1.47307 85.6295 1.39374 86.3431 1.79038 86.8981L11.7065 101.249C14.0071 116.472 23.2886 118.295 23.2886 118.295L28.8416 140.02L37.0125 174.271L38.0438 178.632C38.9957 182.834 42.8035 185.847 47.0873 185.847H51.4504C54.5442 185.847 56.6861 182.834 55.7342 179.98L35.9812 119.881L35.1086 114.648C37.0125 112.507 38.2818 107.988 38.9164 104.737C39.313 102.993 39.4717 101.17 39.313 99.4252C38.9957 95.0645 41.9309 87.2152 41.9309 87.2152C41.6929 85.7088 38.8371 86.9773 38.8371 86.9773C35.6639 88.0873 34.8706 93.1617 34.6326 95.9367C34.5533 97.126 33.998 98.1567 33.2047 98.9495C28.445 103.627 28.0483 108.86 28.0483 108.86" stroke="black" stroke-width="2" stroke-miterlimit="10"/>
<path d="M21.3053 72.7845C20.9087 70.5645 20.1947 68.8995 18.2908 69.4545C15.7523 70.1681 16.7043 72.8638 16.9422 74.0531" stroke="black" stroke-width="2" stroke-miterlimit="10"/>
<path d="M175.68 190.207V191H158.386L154.737 170.782V191H79.85V179.504C79.85 176.729 79.85 173.954 79.9293 171.179C78.2634 172.526 76.4389 173.636 74.297 174.826L57.7172 185.926C57.6379 186.005 57.5585 186.005 57.4792 186.084C56.7652 186.481 55.9719 186.719 55.0993 186.719L51.6515 186.849C51.6515 186.849 55.3373 185.45 56.2099 181.961L50.2603 162.14C58.7485 155.083 72.4724 134.707 98.8097 130.505C99.9203 130.267 101.11 130.029 102.379 129.87C103.569 129.712 104.759 129.553 106.108 129.474L106.981 129.395V129.553L106.505 129.633C106.663 129.633 106.743 129.633 106.901 129.553H106.981C107.139 129.553 107.298 129.553 107.457 129.474H107.536L108.329 129.395V132.408C108.329 132.804 108.488 133.28 108.884 133.676C110.074 135.024 112.772 136.055 116.024 136.293C116.579 136.372 117.135 136.372 117.69 136.372C117.769 136.372 117.849 136.372 117.849 136.372H117.928C121.101 136.293 124.036 135.421 125.544 134.152C126.02 133.756 126.496 133.201 126.496 132.408V129.633L127.289 129.791H127.447C127.685 129.791 127.844 129.87 128.082 129.87V129.633L129.113 129.791C158.227 133.359 175.68 155.956 175.68 190.207Z" fill="#10A5F9"/>
<path d="M57.6379 185.846L57.3999 186.005C57.4792 186.005 57.5586 185.926 57.6379 185.846Z" fill="black"/>
</g>
<defs>
<clipPath id="clip0">
<rect width="175" height="191" fill="white" transform="translate(0.679688)"/>
</clipPath>
</defs>
</svg>
