<svg width="26" height="27" viewBox="0 0 26 27" fill="none" xmlns="http://www.w3.org/2000/svg">
<path d="M25.299 12.286C25.2984 12.2854 25.2978 12.2849 25.2972 12.2843L14.6913 1.67871C14.2392 1.22644 13.6382 0.977295 12.9988 0.977295C12.3595 0.977295 11.7585 1.22624 11.3062 1.67851L0.705807 12.2787C0.702236 12.2823 0.698666 12.286 0.695095 12.2896C-0.23325 13.2233 -0.231663 14.7382 0.699657 15.6695C1.12515 16.0952 1.68711 16.3418 2.28796 16.3676C2.31236 16.37 2.33696 16.3712 2.36175 16.3712H2.78447V24.1762C2.78447 25.7207 4.0411 26.9773 5.58596 26.9773H9.73535C10.1559 26.9773 10.4971 26.6363 10.4971 26.2156V20.0964C10.4971 19.3916 11.0703 18.8184 11.7751 18.8184H14.2225C14.9273 18.8184 15.5006 19.3916 15.5006 20.0964V26.2156C15.5006 26.6363 15.8416 26.9773 16.2623 26.9773H20.4117C21.9566 26.9773 23.2132 25.7207 23.2132 24.1762V16.3712H23.6052C24.2443 16.3712 24.8453 16.1222 25.2978 15.6699C26.2301 14.737 26.2305 13.2195 25.299 12.286Z" fill="#10A5F9"/>
</svg>
