<svg width="27" height="27" viewBox="0 0 27 27" fill="none" xmlns="http://www.w3.org/2000/svg">
<path d="M18.6939 20.4927V22.5322C18.6939 24.7815 16.8641 26.6113 14.6149 26.6113H4.36628C2.11703 26.6113 0.287231 24.7815 0.287231 22.5322V4.58442C0.287231 2.33517 2.11703 0.505371 4.36628 0.505371H14.6149C16.8641 0.505371 18.6939 2.33517 18.6939 4.58442V6.62394C18.6939 7.1872 18.2374 7.64371 17.6742 7.64371C17.1109 7.64371 16.6544 7.1872 16.6544 6.62394V4.58442C16.6544 3.45989 15.7394 2.5449 14.6149 2.5449H4.36628C3.24175 2.5449 2.32676 3.45989 2.32676 4.58442V22.5322C2.32676 23.6568 3.24175 24.5718 4.36628 24.5718H14.6149C15.7394 24.5718 16.6544 23.6568 16.6544 22.5322V20.4927C16.6544 19.9294 17.1109 19.4729 17.6742 19.4729C18.2374 19.4729 18.6939 19.9294 18.6939 20.4927ZM25.6464 11.8066L23.3629 9.5231C22.9646 9.12475 22.3189 9.12475 21.9207 9.5231C21.5224 9.92124 21.5224 10.567 21.9207 10.9651L23.545 12.5896H11.3007C10.7374 12.5896 10.2809 13.0461 10.2809 13.6093C10.2809 14.1726 10.7374 14.6291 11.3007 14.6291H23.545L21.9207 16.2535C21.5224 16.6517 21.5224 17.2974 21.9207 17.6955C22.1199 17.8947 22.3808 17.9943 22.6417 17.9943C22.9028 17.9943 23.1638 17.8947 23.3629 17.6955L25.6464 15.412C26.6405 14.418 26.6405 12.8007 25.6464 11.8066Z" fill="white"/>
</svg>
