<svg width="18" height="12" viewBox="0 0 18 12" fill="none" xmlns="http://www.w3.org/2000/svg">
<path d="M1.1115 3.78177C1.10982 3.7799 1.10818 3.77807 1.10658 3.77627L1.10126 3.75924L1.0169 3.67317C0.329909 2.97224 0.324127 1.80566 1.02099 1.07773L1.02109 1.07782L1.02892 1.06926C1.66813 0.369756 2.72932 0.363284 3.39384 1.07356L8.63238 6.67285L8.9975 7.06311L9.36262 6.67285L14.6412 1.03082L14.6412 1.03084L14.6451 1.02652C15.2867 0.324495 16.3446 0.324495 16.9861 1.02652L16.9862 1.02662C17.6733 1.77816 17.6679 2.95699 16.9901 3.68156L10.172 10.9692C9.51264 11.6739 8.48616 11.6807 7.80099 10.967L7.79816 10.964L7.78368 10.9485L7.72719 10.8881L7.5127 10.6587L6.74695 9.83968C6.11313 9.16154 5.26786 8.25673 4.42199 7.34995C3.57606 6.44308 2.72982 5.53457 2.09395 4.8489C1.77591 4.50596 1.51107 4.21938 1.32536 4.01681C1.23232 3.91533 1.1602 3.83608 1.1115 3.78177Z" fill="black" stroke="white"/>
</svg>
