<svg width="24" height="17" viewBox="0 0 24 17" fill="none" xmlns="http://www.w3.org/2000/svg">
<path d="M12.017 15.5613C15.3893 15.5613 18.1232 12.8695 18.1232 9.54906C18.1232 6.22858 15.3893 3.5368 12.017 3.5368C8.64461 3.5368 5.91077 6.22858 5.91077 9.54906C5.91077 12.8695 8.64461 15.5613 12.017 15.5613Z" fill="white"/>
<path d="M14.4595 0.831299H9.57458V2.03375H14.4595V0.831299Z" fill="white"/>
<path d="M14.7649 2.63498H9.26927H3.77369H0.415283V5.94172V16.4632H23.6188V2.63498H14.7649ZM12.0171 16.1626C8.3106 16.1626 5.30024 13.1985 5.30024 9.54908C5.30024 5.89964 8.3106 2.93559 12.0171 2.93559C15.7235 2.93559 18.7339 5.89964 18.7339 9.54908C18.7339 13.1985 15.7235 16.1626 12.0171 16.1626ZM22.3976 14.0583C22.3976 14.2266 22.2633 14.3589 22.0923 14.3589C21.9213 14.3589 21.787 14.2266 21.787 14.0583V5.03988C21.787 4.87154 21.9213 4.73927 22.0923 4.73927C22.2633 4.73927 22.3976 4.87154 22.3976 5.03988V14.0583Z" fill="white"/>
</svg>
