<svg width="235" height="67" viewBox="0 0 235 67" fill="none" xmlns="http://www.w3.org/2000/svg">
<rect width="235" height="67" rx="33.5" fill="white"/>
<path d="M108.405 17.1113H113.078V17.4849C113.078 18.3345 112.978 19.0864 112.777 19.7407C112.582 20.3462 112.252 20.9126 111.789 21.4399C110.739 22.6216 109.403 23.2124 107.782 23.2124C106.2 23.2124 104.845 22.6411 103.717 21.4985C102.589 20.3511 102.025 18.9741 102.025 17.3677C102.025 15.7271 102.599 14.3354 103.747 13.1929C104.894 12.0454 106.291 11.4717 107.936 11.4717C108.82 11.4717 109.645 11.6523 110.412 12.0137C111.144 12.375 111.864 12.9609 112.572 13.7715L111.356 14.936C110.429 13.7007 109.298 13.083 107.965 13.083C106.769 13.083 105.766 13.4956 104.955 14.3208C104.145 15.1313 103.739 16.147 103.739 17.3677C103.739 18.6274 104.191 19.665 105.094 20.4805C105.939 21.2373 106.854 21.6157 107.841 21.6157C108.681 21.6157 109.435 21.3325 110.104 20.7661C110.773 20.1948 111.146 19.5112 111.225 18.7153H108.405V17.1113ZM121.413 19.8213H116.3C116.344 20.4072 116.535 20.8735 116.872 21.2202C117.208 21.562 117.641 21.7329 118.168 21.7329C118.578 21.7329 118.917 21.6353 119.186 21.4399C119.45 21.2446 119.75 20.8833 120.087 20.356L121.479 21.1323C121.264 21.4985 121.037 21.8135 120.797 22.0771C120.558 22.3359 120.302 22.5508 120.028 22.7217C119.755 22.8877 119.459 23.0098 119.142 23.0879C118.825 23.166 118.48 23.2051 118.109 23.2051C117.045 23.2051 116.19 22.8633 115.546 22.1797C114.901 21.4912 114.579 20.5781 114.579 19.4404C114.579 18.3125 114.892 17.3994 115.517 16.7012C116.146 16.0127 116.981 15.6685 118.021 15.6685C119.071 15.6685 119.901 16.0029 120.512 16.6719C121.117 17.3359 121.42 18.2563 121.42 19.4331L121.413 19.8213ZM119.721 18.4736C119.491 17.5947 118.937 17.1553 118.058 17.1553C117.858 17.1553 117.67 17.187 117.494 17.2505C117.318 17.3091 117.157 17.397 117.011 17.5142C116.869 17.6265 116.747 17.7632 116.645 17.9243C116.542 18.0854 116.464 18.2686 116.41 18.4736H119.721ZM125.053 17.4043V23H123.405V17.4043H122.702V15.8662H123.405V13.2515H125.053V15.8662H126.334V17.4043H125.053ZM133.732 15.8662V23H132.084V15.8662H133.732ZM131.835 12.8999C131.835 12.6118 131.94 12.3628 132.15 12.1528C132.36 11.9429 132.611 11.8379 132.904 11.8379C133.202 11.8379 133.456 11.9429 133.666 12.1528C133.876 12.3579 133.981 12.6094 133.981 12.9072C133.981 13.2051 133.876 13.459 133.666 13.6689C133.461 13.8789 133.209 13.9839 132.912 13.9839C132.614 13.9839 132.36 13.8789 132.15 13.6689C131.94 13.459 131.835 13.2026 131.835 12.8999ZM137.519 17.4043V23H135.871V17.4043H135.167V15.8662H135.871V13.2515H137.519V15.8662H138.8V17.4043H137.519ZM144.213 19.3818C144.213 18.3516 144.582 17.4751 145.319 16.7524C146.056 16.0298 146.955 15.6685 148.014 15.6685C149.079 15.6685 149.982 16.0322 150.724 16.7598C151.457 17.4873 151.823 18.3809 151.823 19.4404C151.823 20.5098 151.454 21.4058 150.717 22.1284C149.975 22.8462 149.064 23.2051 147.985 23.2051C146.916 23.2051 146.02 22.8389 145.297 22.1064C144.574 21.3838 144.213 20.4756 144.213 19.3818ZM145.897 19.4111C145.897 20.124 146.088 20.688 146.469 21.103C146.859 21.5229 147.375 21.7329 148.014 21.7329C148.659 21.7329 149.174 21.5254 149.56 21.1104C149.945 20.6953 150.138 20.1411 150.138 19.4478C150.138 18.7544 149.945 18.2002 149.56 17.7852C149.169 17.3652 148.654 17.1553 148.014 17.1553C147.384 17.1553 146.874 17.3652 146.483 17.7852C146.093 18.2051 145.897 18.7471 145.897 19.4111ZM153.573 15.8662H155.229V16.5254C155.805 15.9541 156.454 15.6685 157.177 15.6685C158.007 15.6685 158.654 15.9297 159.118 16.4521C159.518 16.8965 159.718 17.6216 159.718 18.6274V23H158.063V19.0156C158.063 18.3125 157.965 17.8267 157.77 17.5581C157.58 17.2847 157.233 17.1479 156.73 17.1479C156.183 17.1479 155.795 17.3286 155.565 17.6899C155.341 18.0464 155.229 18.6689 155.229 19.5576V23H153.573V15.8662Z" fill="#100B20"/>
<path d="M84.5879 42.1484H90.8184V42.6465C90.8184 43.7793 90.6849 44.7819 90.418 45.6543C90.1576 46.4616 89.7181 47.2168 89.0996 47.9199C87.6999 49.4954 85.9193 50.2832 83.7578 50.2832C81.6484 50.2832 79.8418 49.5215 78.3379 47.998C76.834 46.4681 76.082 44.6322 76.082 42.4902C76.082 40.3027 76.847 38.4473 78.377 36.9238C79.9069 35.3939 81.7689 34.6289 83.9629 34.6289C85.1413 34.6289 86.2415 34.8698 87.2637 35.3516C88.2402 35.8333 89.2005 36.6146 90.1445 37.6953L88.5234 39.248C87.2865 37.6009 85.7793 36.7773 84.002 36.7773C82.4069 36.7773 81.069 37.3275 79.9883 38.4277C78.9076 39.5085 78.3672 40.8626 78.3672 42.4902C78.3672 44.1699 78.9694 45.5534 80.1738 46.6406C81.3001 47.6497 82.5208 48.1543 83.8359 48.1543C84.9557 48.1543 85.9616 47.7767 86.8535 47.0215C87.7454 46.2598 88.2435 45.3483 88.3477 44.2871H84.5879V42.1484ZM92.8203 45.1758C92.8203 43.8021 93.3118 42.6335 94.2949 41.6699C95.278 40.7064 96.4759 40.2246 97.8887 40.2246C99.3079 40.2246 100.512 40.7096 101.502 41.6797C102.479 42.6497 102.967 43.8411 102.967 45.2539C102.967 46.6797 102.475 47.8743 101.492 48.8379C100.503 49.7949 99.2884 50.2734 97.8496 50.2734C96.4238 50.2734 95.2292 49.7852 94.2656 48.8086C93.3021 47.8451 92.8203 46.6341 92.8203 45.1758ZM95.0664 45.2148C95.0664 46.1654 95.3203 46.9173 95.8281 47.4707C96.349 48.0306 97.0358 48.3105 97.8887 48.3105C98.748 48.3105 99.4349 48.0339 99.9492 47.4805C100.464 46.9271 100.721 46.1882 100.721 45.2637C100.721 44.3392 100.464 43.6003 99.9492 43.0469C99.4284 42.487 98.7415 42.207 97.8887 42.207C97.0488 42.207 96.3685 42.487 95.8477 43.0469C95.3268 43.6068 95.0664 44.3294 95.0664 45.2148ZM104.852 45.1758C104.852 43.8021 105.343 42.6335 106.326 41.6699C107.309 40.7064 108.507 40.2246 109.92 40.2246C111.339 40.2246 112.544 40.7096 113.533 41.6797C114.51 42.6497 114.998 43.8411 114.998 45.2539C114.998 46.6797 114.507 47.8743 113.523 48.8379C112.534 49.7949 111.32 50.2734 109.881 50.2734C108.455 50.2734 107.26 49.7852 106.297 48.8086C105.333 47.8451 104.852 46.6341 104.852 45.1758ZM107.098 45.2148C107.098 46.1654 107.352 46.9173 107.859 47.4707C108.38 48.0306 109.067 48.3105 109.92 48.3105C110.779 48.3105 111.466 48.0339 111.98 47.4805C112.495 46.9271 112.752 46.1882 112.752 45.2637C112.752 44.3392 112.495 43.6003 111.98 43.0469C111.46 42.487 110.773 42.207 109.92 42.207C109.08 42.207 108.4 42.487 107.879 43.0469C107.358 43.6068 107.098 44.3294 107.098 45.2148ZM126.531 49.7754C126.531 50.2246 126.515 50.6185 126.482 50.957C126.456 51.3021 126.417 51.6048 126.365 51.8652C126.209 52.5814 125.903 53.1966 125.447 53.7109C124.588 54.7005 123.406 55.1953 121.902 55.1953C120.633 55.1953 119.588 54.8535 118.768 54.1699C117.921 53.4668 117.433 52.4935 117.303 51.25H119.51C119.594 51.7188 119.734 52.0801 119.93 52.334C120.385 52.9264 121.049 53.2227 121.922 53.2227C123.53 53.2227 124.334 52.2363 124.334 50.2637V48.9355C123.462 49.8275 122.456 50.2734 121.316 50.2734C120.021 50.2734 118.96 49.8047 118.133 48.8672C117.299 47.9167 116.883 46.7285 116.883 45.3027C116.883 43.916 117.27 42.7376 118.045 41.7676C118.878 40.7389 119.979 40.2246 121.346 40.2246C122.544 40.2246 123.54 40.6706 124.334 41.5625V40.4883H126.531V49.7754ZM124.422 45.2637C124.422 44.3392 124.174 43.6003 123.68 43.0469C123.178 42.4805 122.537 42.1973 121.756 42.1973C120.923 42.1973 120.265 42.5065 119.783 43.125C119.347 43.6784 119.129 44.3945 119.129 45.2734C119.129 46.1393 119.347 46.849 119.783 47.4023C120.258 48.0078 120.916 48.3105 121.756 48.3105C122.596 48.3105 123.26 48.0046 123.748 47.3926C124.197 46.8392 124.422 46.1296 124.422 45.2637ZM131.502 33.5059V50H129.305V33.5059H131.502ZM142.947 45.7617H136.131C136.189 46.543 136.443 47.1647 136.893 47.627C137.342 48.0827 137.918 48.3105 138.621 48.3105C139.168 48.3105 139.62 48.1803 139.979 47.9199C140.33 47.6595 140.73 47.1777 141.18 46.4746L143.035 47.5098C142.749 47.998 142.446 48.418 142.127 48.7695C141.808 49.1146 141.466 49.401 141.102 49.6289C140.737 49.8503 140.343 50.013 139.92 50.1172C139.497 50.2214 139.038 50.2734 138.543 50.2734C137.124 50.2734 135.984 49.8177 135.125 48.9062C134.266 47.9883 133.836 46.7708 133.836 45.2539C133.836 43.75 134.253 42.5326 135.086 41.6016C135.926 40.6836 137.039 40.2246 138.426 40.2246C139.826 40.2246 140.932 40.6706 141.746 41.5625C142.553 42.4479 142.957 43.6751 142.957 45.2441L142.947 45.7617ZM140.691 43.9648C140.385 42.793 139.646 42.207 138.475 42.207C138.208 42.207 137.957 42.2493 137.723 42.334C137.488 42.4121 137.273 42.5293 137.078 42.6855C136.889 42.8353 136.727 43.0176 136.59 43.2324C136.453 43.4473 136.349 43.6914 136.277 43.9648H140.691ZM154.227 43.877V50H151.951V34.9219H154.529C155.792 34.9219 156.746 35.0098 157.391 35.1855C158.042 35.3613 158.615 35.6934 159.109 36.1816C159.975 37.028 160.408 38.0957 160.408 39.3848C160.408 40.765 159.946 41.8587 159.021 42.666C158.097 43.4733 156.85 43.877 155.281 43.877H154.227ZM154.227 41.7676H155.076C157.166 41.7676 158.211 40.9635 158.211 39.3555C158.211 37.7995 157.133 37.0215 154.979 37.0215H154.227V41.7676ZM164.529 33.5059V50H162.332V33.5059H164.529ZM174.324 40.4883H176.531V50H174.324V49.0039C173.419 49.8503 172.446 50.2734 171.404 50.2734C170.089 50.2734 169.002 49.7982 168.143 48.8477C167.29 47.8776 166.863 46.6667 166.863 45.2148C166.863 43.7891 167.29 42.6009 168.143 41.6504C168.995 40.6999 170.063 40.2246 171.346 40.2246C172.452 40.2246 173.445 40.6803 174.324 41.5918V40.4883ZM169.109 45.2148C169.109 46.1263 169.354 46.8685 169.842 47.4414C170.343 48.0208 170.975 48.3105 171.736 48.3105C172.55 48.3105 173.208 48.0306 173.709 47.4707C174.21 46.8913 174.461 46.1556 174.461 45.2637C174.461 44.3717 174.21 43.6361 173.709 43.0566C173.208 42.4902 172.557 42.207 171.756 42.207C171.001 42.207 170.369 42.4935 169.861 43.0664C169.36 43.6458 169.109 44.362 169.109 45.2148ZM182.479 48.2324L178.201 40.4883H180.75L183.66 45.957L186.375 40.4883H188.855L181.277 55.1758H178.768L182.479 48.2324Z" fill="#100B20"/>
<path d="M35.0781 43.4213C35.0781 44.3811 35.8615 45.1645 36.8254 45.1645H38.8229V50.1027C38.8229 51.3537 39.8277 52.375 41.0623 52.375C42.301 52.375 43.3018 51.3578 43.3018 50.1027V45.1604H46.7881V50.0986C46.7881 51.3496 47.793 52.3709 49.0275 52.3709C50.2662 52.3709 51.267 51.3537 51.267 50.0986V45.1604H53.2645C54.2283 45.1604 55.0117 44.377 55.0117 43.4172V27.2078H35.0781V43.4213ZM49.7248 18.8078L51.5664 16.1418C51.673 15.9859 51.6484 15.7768 51.5049 15.6742C51.3613 15.5758 51.1563 15.625 51.0496 15.7809L49.1383 18.5535C47.8791 18.0572 46.4764 17.7824 45.0039 17.7824C43.5314 17.7824 42.1287 18.0572 40.8695 18.5535L38.9582 15.785C38.8516 15.6291 38.6465 15.5758 38.5029 15.6783C38.3594 15.7768 38.3348 15.9818 38.4414 16.1459L40.283 18.8119C37.3545 20.1736 35.3037 22.7535 35.0412 25.7682H54.9748C54.7041 22.7494 52.6492 20.1695 49.7248 18.8078ZM40.7957 23.0119C40.5775 23.0119 40.3642 22.9472 40.1827 22.826C40.0013 22.7047 39.8599 22.5324 39.7764 22.3308C39.6929 22.1292 39.671 21.9074 39.7136 21.6934C39.7562 21.4793 39.8612 21.2827 40.0155 21.1284C40.1698 20.9741 40.3664 20.8691 40.5805 20.8265C40.7945 20.7839 41.0163 20.8058 41.2179 20.8893C41.4195 20.9728 41.5918 21.1142 41.7131 21.2956C41.8343 21.4771 41.899 21.6904 41.899 21.9086C41.8983 22.201 41.7818 22.4812 41.575 22.6879C41.3683 22.8947 41.0881 23.0112 40.7957 23.0119ZM49.3434 23.0119C49.1251 23.0119 48.9118 22.9472 48.7304 22.826C48.5489 22.7047 48.4075 22.5324 48.324 22.3308C48.2405 22.1292 48.2187 21.9074 48.2612 21.6934C48.3038 21.4793 48.4089 21.2827 48.5632 21.1284C48.7175 20.9741 48.9141 20.8691 49.1281 20.8265C49.3421 20.7839 49.564 20.8058 49.7656 20.8893C49.9672 20.9728 50.1395 21.1142 50.2607 21.2956C50.382 21.4771 50.4467 21.6904 50.4467 21.9086C50.4459 22.201 50.3294 22.4812 50.1227 22.6879C49.9159 22.8947 49.6357 23.0112 49.3434 23.0119ZM58.5063 27.1422C57.2676 27.1422 56.2668 28.1594 56.2668 29.4145V38.2902C56.2668 39.5412 57.2717 40.5625 58.5063 40.5625C59.7449 40.5625 60.7457 39.5453 60.7457 38.2902V29.4104C60.7498 28.1553 59.749 27.1422 58.5063 27.1422ZM31.4934 27.1422C30.2547 27.1422 29.2539 28.1594 29.2539 29.4145V38.2902C29.2539 39.5412 30.2588 40.5625 31.4934 40.5625C32.732 40.5625 33.7328 39.5453 33.7328 38.2902V29.4104C33.7328 28.1553 32.7279 27.1422 31.4934 27.1422Z" fill="#100B20"/>
</svg>
