<svg width="12" height="9" viewBox="0 0 12 9" fill="none" xmlns="http://www.w3.org/2000/svg">
<path fill-rule="evenodd" clip-rule="evenodd" d="M4.11859 6.28625C3.63234 6.7725 3.63234 7.5675 4.11859 8.0525C4.60422 8.53875 5.39859 8.53875 5.88484 8.0525L11.4005 2.53688C11.8861 2.05125 11.8861 1.25688 11.4005 0.770625C11.1573 0.528125 10.8373 0.40625 10.5173 0.40625C10.1967 0.40625 9.87672 0.528125 9.63359 0.770625L4.11859 6.28625Z" fill="white"/>
<path fill-rule="evenodd" clip-rule="evenodd" d="M7.65102 6.28602C7.16539 6.77164 6.37039 6.77164 5.88477 6.28602L5.00164 5.40289L2.36727 2.76852C1.88164 2.28289 1.08602 2.28289 0.601016 2.76852C0.114766 3.25414 0.114766 4.04914 0.601016 4.53477L4.11852 8.05227C4.60414 8.53852 5.39852 8.53852 5.88477 8.05227L7.65102 6.28602Z" fill="white"/>
</svg>
