<svg width="24" height="24" viewBox="0 0 24 24" fill="none" xmlns="http://www.w3.org/2000/svg">
<path d="M18.8571 17.4476L18.1465 16.744L18.8571 17.4476ZM12.1449 22L12.5853 22.8978C12.2753 23.0498 11.9089 23.0312 11.6159 22.8486C11.323 22.666 11.1449 22.3452 11.1449 22H12.1449ZM12.1449 19.2436V18.2436C12.6972 18.2436 13.1449 18.6913 13.1449 19.2436H12.1449ZM2 10.9278H3H2ZM23 10.9277C23 13.7172 21.6556 16.0423 19.5678 18.1511L18.1465 16.744C20.0255 14.8461 21 12.9978 21 10.9277H23ZM19.5678 18.1511C18.2673 19.4647 16.505 20.6535 15.1092 21.4981C14.4036 21.9249 13.7763 22.273 13.3245 22.5148C13.0985 22.6359 12.9158 22.7305 12.7887 22.7955C12.7251 22.8279 12.6753 22.853 12.6409 22.8702C12.6238 22.8788 12.6104 22.8854 12.6011 22.89C12.5964 22.8924 12.5927 22.8942 12.5901 22.8955C12.5888 22.8961 12.5877 22.8966 12.5869 22.897C12.5865 22.8972 12.5862 22.8974 12.5859 22.8975C12.5858 22.8976 12.5856 22.8977 12.5855 22.8977C12.5854 22.8978 12.5853 22.8978 12.1449 22C11.7046 21.1022 11.7045 21.1022 11.7044 21.1023C11.7044 21.1023 11.7043 21.1023 11.7043 21.1023C11.7043 21.1023 11.7044 21.1023 11.7045 21.1022C11.7048 21.1021 11.7052 21.1018 11.706 21.1015C11.7075 21.1007 11.71 21.0995 11.7135 21.0977C11.7206 21.0943 11.7316 21.0888 11.7464 21.0814C11.776 21.0666 11.8207 21.0441 11.8791 21.0143C11.9958 20.9546 12.167 20.8659 12.3807 20.7515C12.8085 20.5226 13.4045 20.1919 14.0738 19.7869C15.4277 18.9677 17.0216 17.8803 18.1465 16.744L19.5678 18.1511ZM11.1449 22V19.2436H13.1449V22H11.1449ZM12.1449 20.2436C6.29892 20.2436 1 16.6154 1 10.9278H3C3 15.102 6.94448 18.2436 12.1449 18.2436V20.2436ZM1 10.9278C1 5.34111 6.03422 1 12 1V3C6.9195 3 3 6.6529 3 10.9278H1ZM12 1C17.9658 1 23 5.3411 23 10.9277H21C21 6.65292 17.0805 3 12 3V1Z" fill="#121212"/>
<path opacity="0.9" fill-rule="evenodd" clip-rule="evenodd" d="M7.00043 9.5C7.8291 9.5 8.5 10.1717 8.5 10.9992C8.5 11.8283 7.82913 12.5 7.00043 12.5C6.17173 12.5 5.4999 11.8283 5.5 10.9992C5.5 10.1717 6.17176 9.5 7.00043 9.5ZM13.5 10.9992C13.5 10.1717 12.8284 9.5 12 9.5C11.1716 9.5 10.5 10.1717 10.5 10.9992C10.5 11.8283 11.1717 12.5 12 12.5C12.8284 12.5 13.5 11.8283 13.5 10.9992ZM18.5 10.9992C18.5 10.1717 17.8281 9.5 16.9993 9.5C16.1719 9.5 15.5 10.1717 15.5 10.9992C15.5 11.8283 16.1719 12.5 16.9993 12.5C17.8281 12.5 18.5 11.8283 18.5 10.9992Z" fill="#121212"/>
</svg>
