<svg width="18" height="18" viewBox="0 0 18 18" fill="none" xmlns="http://www.w3.org/2000/svg">
<path fill-rule="evenodd" clip-rule="evenodd" d="M9.46614 5.43055C9.30465 5.59204 9.04282 5.59204 8.88132 5.43055L6.39808 2.9473C5.3996 1.94882 3.78089 1.94897 2.78198 2.94788C1.78306 3.9468 1.78273 5.56529 2.78141 6.56397L5.9602 9.74276C6.81556 10.5981 8.14783 10.7326 9.15121 10.0857L9.32034 9.97663C9.51229 9.85288 9.76822 9.90816 9.89198 10.1001L10.1101 10.4384C10.2338 10.6303 10.1785 10.8863 9.9866 11.01L9.81746 11.1191C8.3299 12.0781 6.35767 11.8791 5.09079 10.6122L1.91199 7.43338C0.433074 5.95446 0.433562 3.55747 1.91257 2.07846C3.39161 0.59942 5.78882 0.599213 7.26749 2.07789L9.75074 4.56113C9.91223 4.72263 9.91223 4.98446 9.75074 5.14595L9.46614 5.43055ZM8.59902 12.6334C8.76052 12.4719 9.02235 12.4719 9.18384 12.6334L11.6035 15.0531C12.602 16.0515 14.2207 16.0514 15.2196 15.0525C16.2185 14.0536 16.2189 12.4351 15.2202 11.4364L12.2283 8.44452C11.4298 7.64595 10.2101 7.47131 9.22691 7.99068L9.04897 8.08467C8.84703 8.19135 8.59684 8.11412 8.49017 7.91218L8.30217 7.55631C8.1955 7.35436 8.27273 7.10418 8.47467 6.9975L8.6526 6.90351C10.1094 6.13394 11.9151 6.39249 13.0977 7.5751L16.0896 10.567C17.5685 12.0459 17.568 14.4429 16.089 15.9219C14.61 17.4009 12.2128 17.4011 10.7341 15.9225L8.31443 13.5028C8.15294 13.3413 8.15294 13.0795 8.31443 12.918L8.59902 12.6334Z" fill="#161823"/>
<path d="M8.88132 5.43055L8.80391 5.70669L8.88132 5.43055ZM9.46614 5.43055L9.54355 5.70669L9.46614 5.43055ZM6.39808 2.9473L6.32067 3.22344L6.39808 2.9473ZM2.78198 2.94788L2.70458 2.67173L2.78198 2.94788ZM2.78141 6.56397L2.85882 6.28782L2.78141 6.56397ZM5.9602 9.74276L6.03761 9.46661L5.9602 9.74276ZM9.15121 10.0857L9.20465 10.3814L9.15121 10.0857ZM9.32034 9.97663L9.2669 9.68093L9.32034 9.97663ZM9.89198 10.1001L9.99697 9.85863L9.89198 10.1001ZM10.1101 10.4384L10.0051 10.6798L10.1101 10.4384ZM9.9866 11.01L9.93315 10.7143L9.9866 11.01ZM9.81746 11.1191L9.87091 11.4148L9.81746 11.1191ZM5.09079 10.6122L5.16819 10.336L5.09079 10.6122ZM1.91199 7.43338L1.9894 7.15724L1.91199 7.43338ZM1.91257 2.07846L1.98998 2.35461L1.91257 2.07846ZM7.26749 2.07789L7.3449 1.80174L7.26749 2.07789ZM9.75074 4.56113L9.67333 4.83728L9.75074 4.56113ZM9.75074 5.14595L9.67333 4.86981L9.75074 5.14595ZM9.18384 12.6334L9.10644 12.9095L9.18384 12.6334ZM8.59902 12.6334L8.67643 12.9095L8.67643 12.9095L8.59902 12.6334ZM11.6035 15.0531L11.6809 14.7769L11.6035 15.0531ZM15.2196 15.0525L15.1422 14.7763L15.1422 14.7763L15.2196 15.0525ZM15.2202 11.4364L15.1428 11.7125L15.2202 11.4364ZM12.2283 8.44452L12.3057 8.16837L12.2283 8.44452ZM9.22691 7.99068L9.18235 7.68976L9.18235 7.68976L9.22691 7.99068ZM9.04897 8.08467L9.09353 8.38559H9.09353L9.04897 8.08467ZM8.49017 7.91218L8.37305 8.13287L8.49017 7.91218ZM8.30217 7.55631L8.18506 7.777L8.30217 7.55631ZM8.47467 6.9975L8.43011 6.69659L8.43011 6.69659L8.47467 6.9975ZM8.6526 6.90351L8.69716 7.20442L8.69716 7.20442L8.6526 6.90351ZM13.0977 7.5751L13.1751 7.29896L13.0977 7.5751ZM16.0896 10.567L16.0122 10.8431L16.0122 10.8431L16.0896 10.567ZM16.089 15.9219L16.0116 15.6458L16.0116 15.6458L16.089 15.9219ZM10.7341 15.9225L10.8115 15.6463L10.7341 15.9225ZM8.31443 13.5028L8.23702 13.7789L8.31443 13.5028ZM8.31443 12.918L8.39184 13.1941L8.31443 12.918ZM8.95873 5.1544C9.00962 5.20529 9.08715 5.23921 9.17373 5.23921C9.26031 5.23921 9.33784 5.20529 9.38874 5.1544L9.54355 5.70669C9.43295 5.8173 9.29882 5.86413 9.17373 5.86413C9.04865 5.86413 8.91452 5.8173 8.80391 5.70669L8.95873 5.1544ZM6.47548 2.67115L8.95873 5.1544L8.80391 5.70669L6.32067 3.22344L6.47548 2.67115ZM2.70458 2.67173C3.23387 2.14243 3.91657 1.8862 4.59018 1.88611C5.26379 1.88601 5.94639 2.14206 6.47548 2.67115L6.32067 3.22344C5.85129 2.75407 5.2253 2.51094 4.59021 2.51103C3.95512 2.51112 3.329 2.75441 2.85939 3.22402L2.70458 2.67173ZM2.704 6.84011C2.17824 6.31435 1.86702 5.57523 1.86716 4.75591C1.86731 3.93668 2.17872 3.19758 2.70458 2.67173L2.85939 3.22402C2.38632 3.69709 2.19811 4.2667 2.19803 4.75612C2.19794 5.24545 2.3859 5.81491 2.85882 6.28782L2.704 6.84011ZM5.88279 10.0189L2.704 6.84011L2.85882 6.28782L6.03761 9.46661L5.88279 10.0189ZM9.20465 10.3814C8.1635 11.0527 6.78326 10.9194 5.88279 10.0189L6.03761 9.46661C6.84786 10.2769 8.13215 10.4125 9.09777 9.78997L9.20465 10.3814ZM9.37379 10.2723L9.20465 10.3814L9.09777 9.78997L9.2669 9.68093L9.37379 10.2723ZM9.78699 10.3416C9.75853 10.2974 9.69835 10.2489 9.61294 10.2304C9.53024 10.2126 9.44334 10.2275 9.37379 10.2723L9.2669 9.68093C9.38929 9.60202 9.52634 9.58272 9.65053 9.60954C9.77201 9.63578 9.90168 9.71083 9.99697 9.85863L9.78699 10.3416ZM10.0051 10.6798L9.78699 10.3416L9.99697 9.85863L10.2151 10.1969L10.0051 10.6798ZM9.93315 10.7143C9.96753 10.6921 9.98981 10.6678 10.0027 10.6488C10.0159 10.6294 10.0158 10.6213 10.0135 10.6317C10.0104 10.6463 10.0093 10.6689 10.0128 10.6889C10.0157 10.7051 10.0179 10.6998 10.0051 10.6798L10.2151 10.1969C10.2641 10.273 10.3059 10.3716 10.3271 10.4936C10.3491 10.6195 10.3454 10.7498 10.3199 10.8678C10.2717 11.0911 10.1571 11.2302 10.04 11.3057L9.93315 10.7143ZM9.76402 10.8233L9.93315 10.7143L10.04 11.3057L9.87091 11.4148L9.76402 10.8233ZM5.16819 10.336C6.38996 11.5578 8.31421 11.7581 9.76402 10.8233L9.87091 11.4148C8.3456 12.3982 6.32539 12.2003 5.01338 10.8883L5.16819 10.336ZM1.9894 7.15724L5.16819 10.336L5.01338 10.8883L1.83459 7.70953L1.9894 7.15724ZM1.98998 2.35461C1.27688 3.06771 0.968602 3.95195 0.968491 4.75604C0.968381 5.56006 1.27637 6.44421 1.9894 7.15724L1.83459 7.70953C1.0687 6.94364 0.63747 5.88983 0.637626 4.75587C0.637781 3.62198 1.06925 2.56822 1.83516 1.80232L1.98998 2.35461ZM7.19008 2.35403C6.4806 1.64455 5.53994 1.2814 4.59018 1.28149C3.64042 1.28159 2.69965 1.64493 1.98998 2.35461L1.83516 1.80232C2.60453 1.03295 3.60189 0.656669 4.59016 0.656569C5.57843 0.65647 6.5757 1.03255 7.3449 1.80174L7.19008 2.35403ZM9.67333 4.83728L7.19008 2.35403L7.3449 1.80174L9.82815 4.28499L9.67333 4.83728ZM9.67333 4.86981C9.68544 4.8577 9.69417 4.84649 9.70023 4.83731C9.7063 4.82812 9.70922 4.82168 9.71024 4.81916C9.71122 4.81675 9.71019 4.81862 9.70892 4.82521C9.70759 4.83209 9.70643 4.84189 9.70643 4.85354C9.70642 4.86519 9.70759 4.875 9.70892 4.88187C9.71019 4.88846 9.71122 4.89034 9.71024 4.88793C9.70922 4.8854 9.7063 4.87896 9.70023 4.86977C9.69418 4.86059 9.68544 4.84939 9.67333 4.83728L9.82815 4.28499C9.93533 4.39218 10.0373 4.58281 10.0373 4.85354C10.0373 5.12427 9.93533 5.31491 9.82815 5.4221L9.67333 4.86981ZM9.38874 5.1544L9.67333 4.86981L9.82815 5.4221L9.54355 5.70669L9.38874 5.1544ZM9.10644 12.9095C9.05554 12.8586 8.97801 12.8247 8.89143 12.8247C8.80485 12.8247 8.72732 12.8586 8.67643 12.9095L8.52161 12.3572C8.63222 12.2466 8.76635 12.1998 8.89143 12.1998C9.01652 12.1998 9.15065 12.2466 9.26125 12.3572L9.10644 12.9095ZM11.5261 15.3292L9.10644 12.9095L9.26125 12.3572L11.6809 14.7769L11.5261 15.3292ZM15.297 15.3286C14.7677 15.8579 14.085 16.1142 13.4114 16.1143C12.7378 16.1143 12.0552 15.8583 11.5261 15.3292L11.6809 14.7769C12.1503 15.2463 12.7763 15.4894 13.4114 15.4893C14.0465 15.4892 14.6726 15.246 15.1422 14.7763L15.297 15.3286ZM15.2976 11.1602C15.8234 11.686 16.1346 12.4251 16.1344 13.2444C16.1343 14.0637 15.8229 14.8028 15.297 15.3286L15.1422 14.7763C15.6153 14.3033 15.8035 13.7337 15.8036 13.2442C15.8037 12.7549 15.6157 12.1855 15.1428 11.7125L15.2976 11.1602ZM12.3057 8.16837L15.2976 11.1602L15.1428 11.7125L12.1509 8.72066L12.3057 8.16837ZM9.18235 7.68976C10.1996 7.15239 11.4639 7.32658 12.3057 8.16837L12.1509 8.72066C11.3956 7.96533 10.2205 7.79024 9.27146 8.29159L9.18235 7.68976ZM9.00441 7.78376L9.18235 7.68976L9.27146 8.29159L9.09353 8.38559L9.00441 7.78376ZM8.60728 7.69149C8.62636 7.72761 8.67696 7.77999 8.76053 7.80579C8.84014 7.83036 8.92871 7.82375 9.00441 7.78376L9.09353 8.38559C8.96729 8.45227 8.8298 8.46038 8.70716 8.42253C8.58847 8.38589 8.46065 8.29869 8.37305 8.13287L8.60728 7.69149ZM8.41929 7.33561L8.60728 7.69149L8.37305 8.13287L8.18506 7.777L8.41929 7.33561ZM8.51923 7.29842C8.48177 7.3182 8.45503 7.34214 8.43754 7.36358C8.41961 7.38554 8.41513 7.40009 8.41561 7.39856C8.41703 7.39393 8.42126 7.37474 8.41901 7.34867C8.41695 7.32471 8.4117 7.32125 8.41929 7.33561L8.18506 7.777C8.13931 7.69039 8.10371 7.57993 8.09243 7.44893C8.08098 7.31582 8.09713 7.18955 8.12977 7.0838C8.19152 6.88376 8.30853 6.76081 8.43011 6.69659L8.51923 7.29842ZM8.69716 7.20442L8.51923 7.29841L8.43011 6.69659L8.60805 6.60259L8.69716 7.20442ZM13.0203 7.85125C11.8809 6.71187 10.1199 6.45286 8.69716 7.20442L8.60805 6.60259C10.099 5.81502 11.9493 6.0731 13.1751 7.29896L13.0203 7.85125ZM16.0122 10.8431L13.0203 7.85125L13.1751 7.29896L16.167 10.2908L16.0122 10.8431ZM16.0116 15.6458C16.7247 14.9327 17.033 14.0484 17.0331 13.2443C17.0332 12.4403 16.7252 11.5562 16.0122 10.8431L16.167 10.2908C16.9329 11.0567 17.3641 12.1105 17.364 13.2445C17.3638 14.3784 16.9323 15.4321 16.1664 16.198L16.0116 15.6458ZM10.8115 15.6463C11.521 16.3558 12.4617 16.719 13.4114 16.7189C14.3612 16.7188 15.3019 16.3554 16.0116 15.6458L16.1664 16.198C15.3971 16.9674 14.3997 17.3437 13.4114 17.3438C12.4232 17.3439 11.4259 16.9678 10.6567 16.1986L10.8115 15.6463ZM8.39184 13.2267L10.8115 15.6463L10.6567 16.1986L8.23702 13.7789L8.39184 13.2267ZM8.39184 13.1941C8.37973 13.2062 8.37099 13.2174 8.36493 13.2266C8.35886 13.2358 8.35595 13.2422 8.35493 13.2448C8.35395 13.2472 8.35497 13.2453 8.35625 13.2387C8.35758 13.2318 8.35874 13.222 8.35874 13.2104C8.35874 13.1987 8.35758 13.1889 8.35625 13.1821C8.35497 13.1755 8.35395 13.1736 8.35493 13.176C8.35595 13.1785 8.35886 13.185 8.36493 13.1942C8.37099 13.2033 8.37973 13.2145 8.39184 13.2267L8.23702 13.7789C8.12983 13.6718 8.02788 13.4811 8.02788 13.2104C8.02788 12.9397 8.12983 12.749 8.23702 12.6418L8.39184 13.1941ZM8.67643 12.9095L8.39184 13.1941L8.23702 12.6418L8.52161 12.3572L8.67643 12.9095Z" fill="#161823"/>
</svg>
