<svg width="46" height="46" viewBox="0 0 46 46" fill="none" xmlns="http://www.w3.org/2000/svg">
<path fill-rule="evenodd" clip-rule="evenodd" d="M23 46C35.7025 46 46 35.7025 46 23C46 10.2975 35.7025 0 23 0C10.2975 0 0 10.2975 0 23C0 35.7025 10.2975 46 23 46Z" fill="#6784FF"/>
<path d="M22.5906 18.8344C22.7859 19.0297 23.1025 19.0297 23.2977 18.8344L23.6513 18.4809C23.8465 18.2856 23.8465 17.969 23.6513 17.7738L20.6186 14.7411C18.8147 12.9371 15.8901 12.9374 14.0858 14.7418C12.2814 16.5461 12.2808 19.4704 14.0851 21.2746L17.9631 25.1527C19.5087 26.6982 21.9147 26.9411 23.7295 25.771L23.9396 25.6356C24.1717 25.4859 24.2385 25.1765 24.0889 24.9444L23.818 24.5242C23.6683 24.2921 23.3589 24.2253 23.1268 24.3749L22.9167 24.5104C21.6926 25.2996 20.0673 25.1355 19.0238 24.092L15.1457 20.214C13.9274 18.9956 13.9278 17.0211 15.1464 15.8024C16.3651 14.5838 18.3398 14.5836 19.5579 15.8017L22.5906 18.8344Z" fill="white"/>
<path d="M22.9532 27.6152C22.7579 27.42 22.4413 27.42 22.246 27.6152L21.8925 27.9688C21.6972 28.1641 21.6972 28.4806 21.8925 28.6759L24.8476 31.631C26.6515 33.435 29.5761 33.4347 31.3805 31.6303C33.1848 29.826 33.1854 26.9017 31.3812 25.0975L27.7312 21.4475C26.2884 20.0047 24.0855 19.6893 22.3082 20.6281L22.0872 20.7449C21.843 20.8739 21.7496 21.1764 21.8786 21.4206L22.1122 21.8627C22.2411 22.1068 22.5436 22.2002 22.7878 22.0712L23.0089 21.9545C24.2083 21.3208 25.6963 21.5339 26.6705 22.5081L30.3205 26.1581C31.5389 27.3765 31.5385 29.351 30.3198 30.5697C29.1012 31.7883 27.1264 31.7885 25.9083 30.5704L22.9532 27.6152Z" fill="white"/>
</svg>
