<svg width="318" height="84" viewBox="0 0 318 84" fill="none" xmlns="http://www.w3.org/2000/svg">
<rect y="7" width="318" height="77" rx="38.5" fill="#100B20"/>
<path d="M143.496 27.7559H150.038V28.2788C150.038 29.4683 149.898 30.521 149.617 31.437C149.344 32.2847 148.882 33.0776 148.233 33.8159C146.763 35.4702 144.894 36.2974 142.624 36.2974C140.409 36.2974 138.512 35.4976 136.933 33.8979C135.354 32.2915 134.565 30.3638 134.565 28.1147C134.565 25.8179 135.368 23.8696 136.974 22.27C138.581 20.6636 140.536 19.8604 142.839 19.8604C144.077 19.8604 145.232 20.1133 146.305 20.6191C147.331 21.125 148.339 21.9453 149.33 23.0801L147.628 24.7104C146.329 22.981 144.747 22.1162 142.881 22.1162C141.206 22.1162 139.801 22.6938 138.666 23.8491C137.531 24.9839 136.964 26.4058 136.964 28.1147C136.964 29.8784 137.596 31.3311 138.861 32.4727C140.044 33.5322 141.325 34.062 142.706 34.062C143.882 34.062 144.938 33.6655 145.875 32.8726C146.811 32.0728 147.334 31.1157 147.443 30.0015H143.496V27.7559ZM161.707 31.5498H154.549C154.611 32.3701 154.878 33.0229 155.349 33.5083C155.821 33.9868 156.426 34.2261 157.164 34.2261C157.738 34.2261 158.214 34.0894 158.589 33.8159C158.959 33.5425 159.379 33.0366 159.851 32.2983L161.799 33.3853C161.498 33.8979 161.18 34.3389 160.845 34.708C160.51 35.0703 160.151 35.3711 159.769 35.6104C159.386 35.8428 158.972 36.0137 158.528 36.123C158.084 36.2324 157.602 36.2871 157.082 36.2871C155.592 36.2871 154.396 35.8086 153.493 34.8516C152.591 33.8877 152.14 32.6094 152.14 31.0166C152.14 29.4375 152.577 28.1592 153.452 27.1816C154.334 26.2178 155.503 25.7358 156.959 25.7358C158.429 25.7358 159.591 26.2041 160.445 27.1406C161.293 28.0703 161.717 29.3589 161.717 31.0063L161.707 31.5498ZM159.338 29.6631C159.017 28.4326 158.241 27.8174 157.01 27.8174C156.73 27.8174 156.467 27.8618 156.221 27.9507C155.975 28.0327 155.749 28.1558 155.544 28.3198C155.346 28.4771 155.175 28.6685 155.031 28.894C154.888 29.1196 154.778 29.376 154.703 29.6631H159.338ZM166.803 28.166V36H164.496V28.166H163.511V26.0127H164.496V22.3521H166.803V26.0127H168.597V28.166H166.803ZM178.954 26.0127V36H176.647V26.0127H178.954ZM176.298 21.8599C176.298 21.4565 176.445 21.1079 176.739 20.814C177.033 20.52 177.385 20.373 177.795 20.373C178.212 20.373 178.568 20.52 178.861 20.814C179.155 21.1011 179.302 21.4531 179.302 21.8701C179.302 22.2871 179.155 22.6426 178.861 22.9365C178.574 23.2305 178.222 23.3774 177.805 23.3774C177.388 23.3774 177.033 23.2305 176.739 22.9365C176.445 22.6426 176.298 22.2837 176.298 21.8599ZM184.255 28.166V36H181.948V28.166H180.964V26.0127H181.948V22.3521H184.255V26.0127H186.049V28.166H184.255ZM193.627 30.9346C193.627 29.4922 194.143 28.2651 195.175 27.2534C196.208 26.2417 197.465 25.7358 198.949 25.7358C200.439 25.7358 201.704 26.2451 202.743 27.2637C203.768 28.2822 204.281 29.5332 204.281 31.0166C204.281 32.5137 203.765 33.7681 202.733 34.7798C201.693 35.7847 200.419 36.2871 198.908 36.2871C197.411 36.2871 196.156 35.7744 195.145 34.749C194.133 33.7373 193.627 32.4658 193.627 30.9346ZM195.985 30.9756C195.985 31.9736 196.252 32.7632 196.785 33.3442C197.332 33.9321 198.053 34.2261 198.949 34.2261C199.851 34.2261 200.572 33.9355 201.112 33.3545C201.652 32.7734 201.922 31.9976 201.922 31.0269C201.922 30.0562 201.652 29.2803 201.112 28.6992C200.566 28.1113 199.844 27.8174 198.949 27.8174C198.067 27.8174 197.353 28.1113 196.806 28.6992C196.259 29.2871 195.985 30.0459 195.985 30.9756ZM206.732 26.0127H209.049V26.9355C209.856 26.1357 210.765 25.7358 211.776 25.7358C212.939 25.7358 213.844 26.1016 214.494 26.833C215.054 27.4551 215.335 28.4702 215.335 29.8784V36H213.017V30.4219C213.017 29.4375 212.88 28.7573 212.607 28.3813C212.34 27.9985 211.855 27.8071 211.151 27.8071C210.385 27.8071 209.842 28.0601 209.521 28.5659C209.206 29.0649 209.049 29.9365 209.049 31.1807V36H206.732V26.0127Z" fill="white"/>
<path d="M105.011 52.2227H114.357V52.9697C114.357 54.6689 114.156 56.1729 113.756 57.4814C113.365 58.6924 112.706 59.8252 111.778 60.8799C109.679 63.2432 107.008 64.4248 103.766 64.4248C100.602 64.4248 97.8917 63.2822 95.6359 60.9971C93.38 58.7021 92.2521 55.9482 92.2521 52.7354C92.2521 49.4541 93.3995 46.6709 95.6945 44.3857C97.9894 42.0908 100.782 40.9434 104.073 40.9434C105.841 40.9434 107.491 41.3047 109.025 42.0273C110.489 42.75 111.93 43.9219 113.346 45.543L110.914 47.8721C109.059 45.4014 106.798 44.166 104.132 44.166C101.739 44.166 99.7326 44.9912 98.1115 46.6416C96.4904 48.2627 95.6798 50.2939 95.6798 52.7354C95.6798 55.2549 96.5831 57.3301 98.3898 58.9609C100.079 60.4746 101.91 61.2314 103.883 61.2314C105.563 61.2314 107.071 60.665 108.409 59.5322C109.747 58.3896 110.494 57.0225 110.651 55.4307H105.011V52.2227ZM117.36 56.7637C117.36 54.7031 118.097 52.9502 119.571 51.5049C121.046 50.0596 122.843 49.3369 124.962 49.3369C127.091 49.3369 128.898 50.0645 130.382 51.5195C131.847 52.9746 132.579 54.7617 132.579 56.8809C132.579 59.0195 131.842 60.8115 130.367 62.2568C128.883 63.6924 127.062 64.4102 124.903 64.4102C122.765 64.4102 120.973 63.6777 119.527 62.2129C118.082 60.7676 117.36 58.9512 117.36 56.7637ZM120.729 56.8223C120.729 58.248 121.11 59.376 121.871 60.2061C122.652 61.0459 123.683 61.4658 124.962 61.4658C126.251 61.4658 127.281 61.0508 128.053 60.2207C128.824 59.3906 129.21 58.2822 129.21 56.8955C129.21 55.5088 128.824 54.4004 128.053 53.5703C127.272 52.7305 126.241 52.3105 124.962 52.3105C123.702 52.3105 122.682 52.7305 121.901 53.5703C121.119 54.4102 120.729 55.4941 120.729 56.8223ZM135.406 56.7637C135.406 54.7031 136.144 52.9502 137.618 51.5049C139.093 50.0596 140.89 49.3369 143.009 49.3369C145.138 49.3369 146.944 50.0645 148.429 51.5195C149.894 52.9746 150.626 54.7617 150.626 56.8809C150.626 59.0195 149.889 60.8115 148.414 62.2568C146.93 63.6924 145.109 64.4102 142.95 64.4102C140.812 64.4102 139.02 63.6777 137.574 62.2129C136.129 60.7676 135.406 58.9512 135.406 56.7637ZM138.776 56.8223C138.776 58.248 139.156 59.376 139.918 60.2061C140.699 61.0459 141.73 61.4658 143.009 61.4658C144.298 61.4658 145.328 61.0508 146.1 60.2207C146.871 59.3906 147.257 58.2822 147.257 56.8955C147.257 55.5088 146.871 54.4004 146.1 53.5703C145.318 52.7305 144.288 52.3105 143.009 52.3105C141.749 52.3105 140.729 52.7305 139.947 53.5703C139.166 54.4102 138.776 55.4941 138.776 56.8223ZM167.926 63.6631C167.926 64.3369 167.901 64.9277 167.853 65.4355C167.814 65.9531 167.755 66.4072 167.677 66.7979C167.443 67.8721 166.984 68.7949 166.3 69.5664C165.011 71.0508 163.238 71.793 160.983 71.793C159.078 71.793 157.511 71.2803 156.28 70.2549C155.011 69.2002 154.278 67.7402 154.083 65.875H157.394C157.521 66.5781 157.731 67.1201 158.024 67.501C158.707 68.3896 159.703 68.834 161.012 68.834C163.424 68.834 164.63 67.3545 164.63 64.3955V62.4033C163.321 63.7412 161.813 64.4102 160.104 64.4102C158.16 64.4102 156.568 63.707 155.328 62.3008C154.078 60.875 153.453 59.0928 153.453 56.9541C153.453 54.874 154.034 53.1064 155.196 51.6514C156.446 50.1084 158.097 49.3369 160.148 49.3369C161.944 49.3369 163.439 50.0059 164.63 51.3438V49.7324H167.926V63.6631ZM164.762 56.8955C164.762 55.5088 164.391 54.4004 163.649 53.5703C162.897 52.7207 161.935 52.2959 160.763 52.2959C159.513 52.2959 158.526 52.7598 157.804 53.6875C157.15 54.5176 156.822 55.5918 156.822 56.9102C156.822 58.209 157.15 59.2734 157.804 60.1035C158.517 61.0117 159.503 61.4658 160.763 61.4658C162.023 61.4658 163.019 61.0068 163.751 60.0889C164.425 59.2588 164.762 58.1943 164.762 56.8955ZM175.382 39.2588V64H172.086V39.2588H175.382ZM192.55 57.6426H182.325C182.413 58.8145 182.794 59.7471 183.468 60.4404C184.142 61.124 185.006 61.4658 186.061 61.4658C186.881 61.4658 187.56 61.2705 188.097 60.8799C188.624 60.4893 189.225 59.7666 189.899 58.7119L192.682 60.2646C192.252 60.9971 191.798 61.627 191.319 62.1543C190.841 62.6719 190.328 63.1016 189.781 63.4434C189.235 63.7754 188.644 64.0195 188.009 64.1758C187.374 64.332 186.686 64.4102 185.943 64.4102C183.815 64.4102 182.106 63.7266 180.817 62.3594C179.527 60.9824 178.883 59.1562 178.883 56.8809C178.883 54.625 179.508 52.7988 180.758 51.4023C182.018 50.0254 183.688 49.3369 185.768 49.3369C187.867 49.3369 189.527 50.0059 190.748 51.3438C191.959 52.6719 192.565 54.5127 192.565 56.8662L192.55 57.6426ZM189.166 54.9473C188.707 53.1895 187.599 52.3105 185.841 52.3105C185.441 52.3105 185.065 52.374 184.713 52.501C184.361 52.6182 184.039 52.7939 183.746 53.0283C183.463 53.2529 183.219 53.5264 183.014 53.8486C182.809 54.1709 182.652 54.5371 182.545 54.9473H189.166ZM209.469 54.8154V64H206.056V41.3828H209.923C211.818 41.3828 213.248 41.5146 214.215 41.7783C215.192 42.042 216.051 42.54 216.793 43.2725C218.092 44.542 218.741 46.1436 218.741 48.0771C218.741 50.1475 218.048 51.7881 216.661 52.999C215.275 54.21 213.404 54.8154 211.051 54.8154H209.469ZM209.469 51.6514H210.743C213.878 51.6514 215.445 50.4453 215.445 48.0332C215.445 45.6992 213.829 44.5322 210.597 44.5322H209.469V51.6514ZM224.923 39.2588V64H221.627V39.2588H224.923ZM239.615 49.7324H242.926V64H239.615V62.5059C238.258 63.7754 236.798 64.4102 235.235 64.4102C233.263 64.4102 231.632 63.6973 230.343 62.2715C229.064 60.8164 228.424 59 228.424 56.8223C228.424 54.6836 229.064 52.9014 230.343 51.4756C231.622 50.0498 233.224 49.3369 235.148 49.3369C236.808 49.3369 238.297 50.0205 239.615 51.3877V49.7324ZM231.793 56.8223C231.793 58.1895 232.159 59.3027 232.892 60.1621C233.644 61.0312 234.591 61.4658 235.734 61.4658C236.954 61.4658 237.941 61.0459 238.693 60.2061C239.444 59.3369 239.82 58.2334 239.82 56.8955C239.82 55.5576 239.444 54.4541 238.693 53.585C237.941 52.7354 236.964 52.3105 235.763 52.3105C234.63 52.3105 233.683 52.7402 232.921 53.5996C232.169 54.4688 231.793 55.543 231.793 56.8223ZM251.847 61.3486L245.431 49.7324H249.254L253.619 57.9355L257.692 49.7324H261.412L250.045 71.7637H246.28L251.847 61.3486Z" fill="white"/>
<path d="M45.3535 56.9076C45.3535 58.3244 46.51 59.4809 47.9328 59.4809H50.8814V66.7707C50.8814 68.6174 52.3648 70.125 54.1873 70.125C56.0158 70.125 57.4932 68.6234 57.4932 66.7707V59.4748H62.6396V66.7646C62.6396 68.6113 64.123 70.1189 65.9455 70.1189C67.774 70.1189 69.2514 68.6174 69.2514 66.7646V59.4748H72.2C73.6229 59.4748 74.7793 58.3184 74.7793 56.9016V32.9734H45.3535V56.9076ZM66.9748 20.5734L69.6934 16.6379C69.8508 16.4078 69.8145 16.099 69.6025 15.9477C69.3906 15.8023 69.0879 15.875 68.9305 16.1051L66.109 20.1981C64.2502 19.4654 62.1795 19.0598 60.0059 19.0598C57.8322 19.0598 55.7615 19.4654 53.9027 20.1981L51.0813 16.1111C50.9238 15.8811 50.6211 15.8023 50.4092 15.9537C50.1973 16.099 50.1609 16.4018 50.3184 16.6439L53.0369 20.5795C48.7139 22.5897 45.6865 26.398 45.299 30.8482H74.7248C74.3252 26.392 71.2918 22.5836 66.9748 20.5734ZM53.7938 26.7795C53.4716 26.7795 53.1567 26.684 52.8889 26.505C52.621 26.326 52.4123 26.0717 52.289 25.7741C52.1657 25.4765 52.1335 25.149 52.1963 24.833C52.2592 24.5171 52.4143 24.2269 52.6421 23.9991C52.8699 23.7713 53.1601 23.6162 53.476 23.5534C53.7919 23.4905 54.1194 23.5228 54.417 23.6461C54.7146 23.7693 54.969 23.9781 55.148 24.2459C55.3269 24.5138 55.4225 24.8287 55.4225 25.1508C55.4213 25.5824 55.2494 25.996 54.9442 26.3012C54.639 26.6064 54.2254 26.7784 53.7938 26.7795ZM66.4117 26.7795C66.0896 26.7795 65.7747 26.684 65.5069 26.505C65.239 26.326 65.0303 26.0717 64.907 25.7741C64.7837 25.4765 64.7515 25.149 64.8143 24.833C64.8771 24.5171 65.0323 24.2269 65.26 23.9991C65.4878 23.7713 65.778 23.6162 66.094 23.5534C66.4099 23.4905 66.7374 23.5228 67.035 23.6461C67.3326 23.7693 67.587 23.9781 67.7659 24.2459C67.9449 24.5138 68.0404 24.8287 68.0404 25.1508C68.0393 25.5824 67.8674 25.996 67.5622 26.3012C67.257 26.6064 66.8433 26.7784 66.4117 26.7795ZM79.9379 32.8766C78.1094 32.8766 76.632 34.3781 76.632 36.2309V49.3332C76.632 51.1799 78.1154 52.6875 79.9379 52.6875C81.7664 52.6875 83.2438 51.1859 83.2438 49.3332V36.2248C83.2498 34.3721 81.7725 32.8766 79.9379 32.8766ZM40.0617 32.8766C38.2332 32.8766 36.7559 34.3781 36.7559 36.2309V49.3332C36.7559 51.1799 38.2393 52.6875 40.0617 52.6875C41.8902 52.6875 43.3676 51.1859 43.3676 49.3332V36.2248C43.3676 34.3721 41.8842 32.8766 40.0617 32.8766Z" fill="white"/>
</svg>
