<svg width="46" height="46" viewBox="0 0 46 46" fill="none" xmlns="http://www.w3.org/2000/svg">
<circle cx="23" cy="23" r="23" fill="white"/>
<path d="M46 22.9896C46 10.2928 35.7026 0 23 0C10.2974 0 0 10.2928 0 22.9896C0 34.4643 8.41072 43.9753 19.4062 45.7V29.6351H13.5664V22.9896H19.4062V17.9247C19.4062 12.163 22.8401 8.98033 28.0937 8.98033C30.6093 8.98033 33.2422 9.42935 33.2422 9.42935V15.087H30.342C27.485 15.087 26.5938 16.8592 26.5938 18.6791V22.9896H32.9727L31.9529 29.6351H26.5938V45.7C37.5893 43.9753 46 34.4643 46 22.9896Z" fill="#1877F2"/>
</svg>
