<svg width="49" height="49" viewBox="0 0 49 49" fill="none" xmlns="http://www.w3.org/2000/svg">
<g opacity="0.75">
<path fill-rule="evenodd" clip-rule="evenodd" d="M23.5 31C27.9183 31 31.5 27.4183 31.5 23C31.5 18.5817 27.9183 15 23.5 15C19.0817 15 15.5 18.5817 15.5 23C15.5 27.4183 19.0817 31 23.5 31Z" stroke="white" stroke-width="2"/>
<path fill-rule="evenodd" clip-rule="evenodd" d="M28.3179 29.7322C28.1226 29.537 28.1226 29.2204 28.3179 29.0251L29.025 28.318C29.2203 28.1227 29.5369 28.1227 29.7321 28.318L34.6819 33.2677C34.8771 33.463 34.8771 33.7796 34.6819 33.9749L33.9748 34.682C33.7795 34.8772 33.4629 34.8772 33.2677 34.682L28.3179 29.7322Z" fill="white"/>
</g>
</svg>
