<svg width="49" height="49" viewBox="0 0 49 49" fill="none" xmlns="http://www.w3.org/2000/svg">
<path fill-rule="evenodd" clip-rule="evenodd" d="M26 35.5001C25.7239 35.5001 25.5 35.2762 25.5 35.0001V28.0001C25.5 27.7239 25.2762 27.5001 25 27.5001H24C23.7239 27.5001 23.5 27.7239 23.5 28.0001V35.0001C23.5 35.2762 23.2762 35.5001 23 35.5001H17.8167C16.7851 35.5001 15.9227 34.7154 15.8256 33.6884L14.9969 24.9252H13.3428C12.7905 24.9252 12.3428 24.4775 12.3428 23.9252C12.3428 23.6265 12.4763 23.3435 12.7068 23.1535L23.875 13.9495C24.2444 13.645 24.7778 13.6451 25.1471 13.9496L36.3098 23.1537C36.7359 23.505 36.7966 24.1353 36.4452 24.5614C36.2552 24.7918 35.9723 24.9252 35.6737 24.9252H33.9969L33.1683 33.6884C33.0711 34.7154 32.2088 35.5001 31.1772 35.5001H26Z" fill="white"/>
</svg>
