<svg width="22" height="18" viewBox="0 0 22 18" fill="none" xmlns="http://www.w3.org/2000/svg">
<path d="M21.06 2.6039C20.2855 2.93943 19.4427 3.18091 18.5746 3.27496C19.4759 2.73718 20.1509 1.88759 20.4728 0.885575C19.6271 1.39088 18.7005 1.7452 17.7343 1.93284C17.3305 1.49926 16.8421 1.15385 16.2995 0.918131C15.757 0.682415 15.1719 0.561443 14.5808 0.562755C12.189 0.562755 10.2655 2.50985 10.2655 4.89923C10.2655 5.23476 10.306 5.57029 10.3718 5.89311C6.79053 5.70501 3.59647 3.98669 1.47301 1.35583C1.08609 2.01955 0.883334 2.77529 0.885831 3.5444C0.885831 5.0492 1.64765 6.37607 2.80935 7.15643C2.12474 7.12935 1.45616 6.94037 0.857991 6.60484V6.65822C0.857991 8.76545 2.34112 10.5117 4.31779 10.9134C3.94665 11.0102 3.56485 11.0597 3.1814 11.0608C2.90046 11.0608 2.63471 11.0328 2.36643 10.9947C2.91312 12.713 4.50508 13.9611 6.40076 14.0018C4.91763 15.1685 3.05991 15.8548 1.04275 15.8548C0.680824 15.8548 0.34674 15.8421 0 15.8014C1.91339 17.0342 4.18365 17.746 6.62855 17.746C14.5656 17.746 18.9087 11.1421 18.9087 5.41015C18.9087 5.22205 18.9087 5.03395 18.896 4.84585C19.7363 4.22817 20.4728 3.46306 21.06 2.6039Z" fill="white"/>
</svg>
