<svg width="49" height="49" viewBox="0 0 49 49" fill="none" xmlns="http://www.w3.org/2000/svg">
<g opacity="0.75">
<path fill-rule="evenodd" clip-rule="evenodd" d="M25.7423 35.3267C25.8526 35.2472 25.951 35.1523 26.0344 35.045L28.2913 32.1429H33.0952C34.1472 32.1429 35 31.2901 35 30.2381V16.9048C35 15.8528 34.1472 15 33.0952 15H16.9048C15.8528 15 15 15.8528 15 16.9048V30.2381C15 31.2901 15.8528 32.1429 16.9048 32.1429H21.685L23.748 35.0036C24.2095 35.6436 25.1024 35.7882 25.7423 35.3267ZM33 30.1765H27.3319L24.922 33.2753L22.6873 30.1765H17V17H33V30.1765Z" fill="white"/>
<rect x="21" y="23" width="8" height="2" rx="0.5" fill="white"/>
</g>
</svg>
