<svg width="23" height="17" viewBox="0 0 23 17" fill="none" xmlns="http://www.w3.org/2000/svg">
<path d="M21.9129 3.02802C21.7855 2.55149 21.5357 2.11693 21.1886 1.76782C20.8414 1.41871 20.409 1.1673 19.9347 1.03875C18.1887 0.567139 11.19 0.567139 11.19 0.567139C11.19 0.567139 4.19126 0.567139 2.44532 1.03624C1.97079 1.16437 1.53819 1.41564 1.19095 1.76482C0.843714 2.11399 0.594067 2.54878 0.467083 3.02551C-7.2596e-08 4.78149 0 8.44397 0 8.44397C0 8.44397 -7.2596e-08 12.1064 0.467083 13.8599C0.724353 14.8282 1.48367 15.5908 2.44532 15.8492C4.19126 16.3208 11.19 16.3208 11.19 16.3208C11.19 16.3208 18.1887 16.3208 19.9347 15.8492C20.8988 15.5908 21.6556 14.8282 21.9129 13.8599C22.38 12.1064 22.38 8.44397 22.38 8.44397C22.38 8.44397 22.38 4.78149 21.9129 3.02802ZM8.96699 11.8054V5.08252L14.7618 8.41888L8.96699 11.8054Z" fill="white"/>
</svg>
