<svg width="49" height="49" viewBox="0 0 49 49" fill="none" xmlns="http://www.w3.org/2000/svg">
<g opacity="0.75">
<path fill-rule="evenodd" clip-rule="evenodd" d="M19.3719 20.1517C19.3719 23.273 21.9023 25.8033 25.0236 25.8033C28.1449 25.8033 30.6753 23.273 30.6753 20.1517C30.6753 17.0303 28.1449 14.5 25.0236 14.5C21.9023 14.5 19.3719 17.0303 19.3719 20.1517ZM28.7911 20.1517C28.7911 22.2325 27.1042 23.9194 25.0233 23.9194C22.9424 23.9194 21.2555 22.2325 21.2555 20.1517C21.2555 18.0708 22.9424 16.3839 25.0233 16.3839C27.1042 16.3839 28.7911 18.0708 28.7911 20.1517Z" fill="white"/>
<path d="M33.7148 33.7536L33.8486 34.1748C33.9322 34.4379 33.7866 34.7191 33.5235 34.8027L32.6811 35.0703C32.4179 35.1539 32.1368 35.0083 32.0532 34.7451L31.9193 34.3239C30.9839 31.3791 28.1958 29.3304 25.0002 29.3304C21.8041 29.3304 19.0157 31.3797 18.0806 34.3252L17.9469 34.7464C17.8633 35.0096 17.5822 35.1552 17.319 35.0716L16.4766 34.8042C16.2134 34.7206 16.0677 34.4395 16.1513 34.1763L16.285 33.7551C17.468 30.0288 20.9816 27.4465 25.0002 27.4465C29.0181 27.4465 32.5313 30.028 33.7148 33.7536Z" fill="white"/>
</g>
</svg>
