<svg width="21" height="22" viewBox="0 0 21 22" fill="none" xmlns="http://www.w3.org/2000/svg">
<path d="M10.1973 5.5462C7.30111 5.5462 4.96377 7.89366 4.96377 10.8024C4.96377 13.7111 7.30111 16.0585 10.1973 16.0585C13.0934 16.0585 15.4307 13.7111 15.4307 10.8024C15.4307 7.89366 13.0934 5.5462 10.1973 5.5462ZM10.1973 14.2185C8.32433 14.2185 6.79587 12.6834 6.79587 10.8024C6.79587 8.92132 8.32433 7.38624 10.1973 7.38624C12.0702 7.38624 13.5986 8.92132 13.5986 10.8024C13.5986 12.6834 12.0702 14.2185 10.1973 14.2185ZM15.6451 4.10594C14.9689 4.10594 14.4228 4.65436 14.4228 5.33349C14.4228 6.01261 14.9689 6.56104 15.6451 6.56104C16.3213 6.56104 16.8673 6.01518 16.8673 5.33349C16.8675 5.17223 16.8361 5.01251 16.7747 4.86349C16.7134 4.71446 16.6233 4.57906 16.5098 4.46503C16.3963 4.351 16.2614 4.26059 16.1131 4.19897C15.9647 4.13735 15.8057 4.10574 15.6451 4.10594ZM20.3989 10.8024C20.3989 9.38774 20.4116 7.98592 20.3325 6.57385C20.2534 4.9337 19.8809 3.47807 18.6867 2.27871C17.49 1.07678 16.0431 0.705188 14.4101 0.625743C13.0016 0.546298 11.6058 0.559112 10.1998 0.559112C8.79128 0.559112 7.39552 0.546298 5.98954 0.625743C4.35647 0.705188 2.90712 1.07935 1.71293 2.27871C0.516198 3.48063 0.146205 4.9337 0.0671025 6.57385C-0.0119994 7.98848 0.000758981 9.3903 0.000758981 10.8024C0.000758981 12.2144 -0.0119994 13.6188 0.0671025 15.0309C0.146205 16.671 0.518749 18.1267 1.71293 19.326C2.90967 20.528 4.35647 20.8995 5.98954 20.979C7.39807 21.0584 8.79384 21.0456 10.1998 21.0456C11.6083 21.0456 13.0041 21.0584 14.4101 20.979C16.0431 20.8995 17.4925 20.5254 18.6867 19.326C19.8834 18.1241 20.2534 16.671 20.3325 15.0309C20.4142 13.6188 20.3989 12.217 20.3989 10.8024ZM18.1534 16.8453C17.9671 17.3117 17.7426 17.6602 17.3828 18.019C17.023 18.3804 16.6785 18.6059 16.2141 18.793C14.8719 19.3286 11.6849 19.2081 10.1973 19.2081C8.70963 19.2081 5.52004 19.3286 4.17785 18.7955C3.71345 18.6085 3.36642 18.3829 3.00919 18.0216C2.6494 17.6602 2.42485 17.3143 2.23858 16.8479C1.70783 15.4973 1.82776 12.2964 1.82776 10.8024C1.82776 9.30829 1.70783 6.10487 2.23858 4.75687C2.42485 4.29046 2.6494 3.94192 3.00919 3.58314C3.36897 3.22436 3.71345 2.99627 4.17785 2.80919C5.52004 2.27615 8.70963 2.39659 10.1973 2.39659C11.6849 2.39659 14.8745 2.27615 16.2167 2.80919C16.6811 2.99627 17.0281 3.22179 17.3853 3.58314C17.7451 3.94449 17.9697 4.29046 18.1559 4.75687C18.6867 6.10487 18.5668 9.30829 18.5668 10.8024C18.5668 12.2964 18.6867 15.4973 18.1534 16.8453Z" fill="white"/>
</svg>
