<svg width="21" height="22" viewBox="0 0 21 22" fill="none" xmlns="http://www.w3.org/2000/svg">
<path d="M19.5936 0.55835H0.8164C0.364829 0.55835 0 0.924759 0 1.37829V20.2368C0 20.6904 0.364829 21.0568 0.8164 21.0568H19.5936C20.0452 21.0568 20.41 20.6904 20.41 20.2368V1.37829C20.41 0.924759 20.0452 0.55835 19.5936 0.55835ZM18.7772 19.4169H14.0804V13.1188H16.7337L17.1316 10.0261H14.0804V8.05052C14.0804 7.15371 14.3278 6.54389 15.606 6.54389H17.2362V3.7766C16.9531 3.73817 15.9861 3.65361 14.8585 3.65361C12.5062 3.65361 10.8964 5.09619 10.8964 7.74304V10.0235H8.23799V13.1162H10.8989V19.4169H1.6328V2.19822H18.7772V19.4169Z" fill="white"/>
</svg>
