<svg
    xmlns="http://www.w3.org/2000/svg"
    viewBox="0 0 512 512"
    id="vector">
    <path
        id="path"
        d="M 388.722 274.963 L 369.777 274.963 L 369.777 237.037 L 388.722 237.037 C 409.648 237.037 426.666 220.028 426.666 199.111 C 426.666 178.194 409.647 161.185 388.722 161.185 L 369.777 161.185 L 369.777 123.278 C 369.777 102.352 352.768 85.334 331.851 85.334 C 310.934 85.334 293.925 102.353 293.925 123.278 L 293.925 161.185 L 218.073 161.185 L 218.073 123.278 C 218.073 102.352 201.064 85.334 180.147 85.334 C 159.23 85.334 142.221 102.353 142.221 123.278 L 142.221 161.185 L 123.277 161.185 C 102.351 161.185 85.333 178.194 85.333 199.111 C 85.333 220.028 102.352 237.037 123.277 237.037 L 142.221 237.037 L 142.221 274.963 L 123.277 274.963 C 102.351 274.963 85.333 291.972 85.333 312.889 C 85.333 333.806 102.352 350.815 123.277 350.815 L 142.221 350.815 L 142.221 388.722 C 142.221 409.648 159.23 426.666 180.147 426.666 C 201.064 426.666 218.073 409.647 218.073 388.722 L 218.073 350.815 L 293.925 350.815 L 293.925 388.722 C 293.925 409.648 310.934 426.666 331.851 426.666 C 352.768 426.666 369.777 409.647 369.777 388.722 L 369.777 350.815 L 388.722 350.815 C 409.648 350.815 426.666 333.806 426.666 312.889 C 426.666 291.972 409.648 274.963 388.722 274.963 Z M 388.722 331.852 L 360.296 331.852 C 355.055 331.852 350.814 336.093 350.814 341.333 L 350.814 388.722 C 350.814 399.185 342.305 407.703 331.851 407.703 C 321.397 407.703 312.888 399.185 312.888 388.722 L 312.888 341.333 C 312.888 336.092 308.647 331.852 303.406 331.852 L 208.591 331.852 C 203.35 331.852 199.109 336.093 199.109 341.333 L 199.109 388.722 C 199.109 399.185 190.6 407.703 180.146 407.703 C 169.692 407.703 161.183 399.184 161.183 388.722 L 161.183 341.333 C 161.183 336.092 156.942 331.852 151.702 331.852 L 123.276 331.852 C 112.813 331.852 104.295 323.343 104.295 312.889 C 104.295 302.435 112.814 293.926 123.276 293.926 L 151.702 293.926 C 156.943 293.926 161.183 289.685 161.183 284.445 L 161.183 227.556 C 161.183 222.315 156.942 218.075 151.702 218.075 L 123.276 218.075 C 112.813 218.075 104.295 209.566 104.295 199.112 C 104.295 188.658 112.814 180.149 123.276 180.149 L 151.702 180.149 C 156.943 180.149 161.183 175.908 161.183 170.668 L 161.183 123.279 C 161.183 112.816 169.692 104.298 180.146 104.298 C 190.6 104.298 199.109 112.817 199.109 123.279 L 199.109 170.668 C 199.109 175.909 203.35 180.149 208.591 180.149 L 303.406 180.149 C 308.647 180.149 312.888 175.908 312.888 170.668 L 312.888 123.279 C 312.888 112.816 321.397 104.298 331.851 104.298 C 342.305 104.298 350.814 112.817 350.814 123.279 L 350.814 170.668 C 350.814 175.909 355.055 180.149 360.296 180.149 L 388.722 180.149 C 399.185 180.149 407.703 188.658 407.703 199.112 C 407.703 209.566 399.184 218.075 388.722 218.075 L 360.296 218.075 C 355.055 218.075 350.814 222.316 350.814 227.556 L 350.814 284.445 C 350.814 289.686 355.055 293.926 360.296 293.926 L 388.722 293.926 C 399.185 293.926 407.703 302.435 407.703 312.889 C 407.704 323.343 399.185 331.852 388.722 331.852 Z"
        fill="#000000"/>
    <path
        id="path_1"
        d="M 303.407 218.074 L 208.592 218.074 C 203.351 218.074 199.11 222.315 199.11 227.555 L 199.11 284.444 C 199.11 289.685 203.351 293.925 208.592 293.925 L 303.407 293.925 C 308.648 293.925 312.889 289.684 312.889 284.444 L 312.889 227.555 C 312.889 222.315 308.648 218.074 303.407 218.074 Z M 293.926 274.963 L 218.074 274.963 L 218.074 237.037 L 293.926 237.037 L 293.926 274.963 Z"
        fill="#000000"/>
    <path
        id="path_2"
        d="M 256 0 C 114.843 0 0 114.843 0 256 C 0 397.157 114.843 512 256 512 C 397.157 512 512 397.157 512 256 C 512 114.843 397.157 0 256 0 Z M 256 493.037 C 125.296 493.037 18.963 386.704 18.963 256 C 18.963 125.296 125.296 18.963 256 18.963 C 386.704 18.963 493.037 125.296 493.037 256 C 493.037 386.704 386.704 493.037 256 493.037 Z"
        fill="#000000"/>
</svg>
