<svg width="46" height="46" viewBox="0 0 46 46" fill="none" xmlns="http://www.w3.org/2000/svg">
<path fill-rule="evenodd" clip-rule="evenodd" d="M23 46C35.7025 46 46 35.7025 46 23C46 10.2975 35.7025 0 23 0C10.2975 0 0 10.2975 0 23C0 35.7025 10.2975 46 23 46Z" fill="#2DC100"/>
<path d="M28.0698 33.5567C26.8221 33.4272 25.5105 34.1425 24.205 34.2751C20.2286 34.6794 16.6662 33.5781 13.7288 30.8787C8.14209 25.7437 8.94035 17.8703 15.4039 13.6622C21.1485 9.92232 29.5732 11.1691 33.6234 16.3584C37.1578 20.8866 36.7425 26.8975 32.4277 30.7016C31.1791 31.8026 31.96 35.1615 32.0458 35.5C32.0458 35.5 29.3224 33.6867 28.0698 33.5567Z" fill="white"/>
</svg>
