<svg width="46" height="46" viewBox="0 0 46 46" fill="none" xmlns="http://www.w3.org/2000/svg">
<path fill-rule="evenodd" clip-rule="evenodd" d="M23 46C35.7025 46 46 35.7025 46 23C46 10.2975 35.7025 0 23 0C10.2975 0 0 10.2975 0 23C0 35.7025 10.2975 46 23 46Z" fill="#55ACEE"/>
<path fill-rule="evenodd" clip-rule="evenodd" d="M34.3595 14.4106C33.7058 14.8344 32.2048 15.4501 31.4645 15.4501V15.4514C30.6193 14.5578 29.4293 14 28.1095 14C25.5462 14 23.4677 16.1034 23.4677 18.6963C23.4677 19.0565 23.509 19.4079 23.5852 19.7449H23.5845C20.1075 19.6526 16.3047 17.889 14.0155 14.8705C12.608 17.3359 13.826 20.0779 15.4232 21.0769C14.8765 21.1187 13.87 21.0132 13.3963 20.5454C13.3645 22.1817 14.142 24.3499 16.977 25.1364C16.431 25.4337 15.4645 25.3484 15.0443 25.2852C15.1918 26.6665 17.1033 28.4724 19.1935 28.4724C18.4485 29.3444 15.6455 30.9261 12.5 30.4229C14.6363 31.7382 17.126 32.5 19.7613 32.5C27.25 32.5 33.0658 26.3581 32.7528 18.7813C32.7515 18.7729 32.7515 18.7646 32.7507 18.7555C32.7515 18.736 32.7528 18.7165 32.7528 18.6963C32.7528 18.6728 32.7507 18.6505 32.75 18.6277C33.4317 18.1559 34.3465 17.3213 35 16.2228C34.621 16.434 33.484 16.857 32.426 16.962C33.105 16.5911 34.111 15.3765 34.3595 14.4106Z" fill="white"/>
</svg>
