<svg
    xmlns="http://www.w3.org/2000/svg"
    viewBox="0 0 70 72"
    id="vector">
    <path
        id="path"
        d="M 34.85 70.17 C 54.081 70.17 69.67 54.581 69.67 35.35 C 69.67 16.119 54.081 0.53 34.85 0.53 C 15.62 0.53 0.03 16.119 0.03 35.35 C 0.03 54.581 15.62 70.17 34.85 70.17 Z"
        fill="#fbefef"/>
    <path
        id="path_1"
        d="M 44.28 56.13 L 39.06 62.61 L 26.15 61 L 25.38 56.22 C 23.38 57.3 17.05 61.22 13.38 63.94 C 19.475 68.813 27.046 71.468 34.85 71.468 C 42.654 71.468 50.225 68.813 56.32 63.94 C 52.66 61.18 46.3 57.21 44.28 56.13 Z"
        fill="#b52828"
        fill-opacity="0.548"
        stroke-opacity="0.548"/>
    <path
        id="path_2"
        d="M 23.1 46.11 L 20.66 35.38 L 24 24.93 L 29.14 22.05 L 43.57 24.37 L 49.43 34.21 L 47.66 42.62 L 43 49.95 L 42.51 52.59 L 42.79 53.15 C 45.17 50.87 46.36 47.73 47.13 44.85 C 48.695 43.449 49.963 41.749 50.86 39.85 C 51.42 37.85 51.98 35.06 50.49 33.08 C 50.412 33.009 50.347 32.924 50.3 32.83 C 50.42 32.15 50.49 31.46 50.55 30.83 C 52.29 19.14 45.83 18.4 45.08 18.4 C 45.02 18.4 45.02 18.34 44.96 18.34 C 44.21 15.34 39.86 12.12 35.76 12.93 C 31.66 13.74 23.27 12.81 23.27 12.81 C 23.15 14.61 24.7 18.34 24.7 18.34 C 17.55 22.69 18.86 29.53 19.54 32.82 C 19.462 32.891 19.397 32.976 19.35 33.07 C 17.86 35.07 18.42 37.86 18.98 39.85 C 19.877 41.749 21.145 43.449 22.71 44.85 C 23.364 47.73 24.698 50.411 26.6 52.67 L 27.55 50 L 23.1 46.11 Z"
        fill="#b52828"
        fill-opacity="0.548"
        stroke-opacity="0.548"/>
    <path
        id="path_3"
        d="M 39.06 62.61 L 44.28 56.13 L 42.8 53.15 L 42.52 52.59 L 43.01 49.95 L 47.65 42.63 L 49.42 34.22 L 43.56 24.38 L 29.13 22.05 L 23.98 24.93 L 20.66 35.38 L 23.1 46.11 L 27.55 49.95 L 26.6 52.67 L 25.38 56.18 L 26.15 60.96 L 39.06 62.61 Z"
        fill="#b52828"
        fill-opacity="0.548"
        stroke-opacity="0.548"/>
</svg>
