<svg width="40" height="40" viewBox="0 0 40 40" fill="none" xmlns="http://www.w3.org/2000/svg">
<g opacity="0.9" filter="url(#filter0_d)">
<path fill-rule="evenodd" clip-rule="evenodd" d="M27.4799 3.66675C24.5638 3.66675 21.9134 4.88182 20.2991 7.1819C18.0839 4.88182 15.4308 3.66675 12.52 3.66675C6.96368 3.66675 2.34717 8.48202 2.34717 14.2122C2.34717 14.6024 2.36559 14.7797 2.34717 14.7981C2.37612 16.1192 2.99995 18.5001 3.49995 19.5001C6.86533 26.7849 17.4999 34.5001 17.9999 35.0001C18.4999 35.5001 18.9999 36.0001 19.9999 36.0001C20.9999 36.0001 21.4999 35.5001 21.9999 35.0001C22.4999 34.5001 31.7939 27.4784 35.8575 20.6566C36.034 20.1906 36.1499 19.9603 36.4559 19.4849C36.6499 18.9941 36.8447 18.5494 37.0543 18.3132C37.4237 16.9981 37.6317 16.0027 37.6527 14.7981C37.6369 14.7638 37.6527 14.5997 37.6527 14.2122C37.6527 8.48467 33.0336 3.66675 27.4799 3.66675Z" fill="white"/>
</g>
<path opacity="0.03" fill-rule="evenodd" clip-rule="evenodd" d="M3.5 19.4849C6.86538 26.7697 18.008 35.1061 18.504 35.3031C19 35.5 19.5 36 20 36C20.5 36 21 36 21.5 35.5C22 35 31.794 27.4784 35.8576 20.6566C36.0341 20.1906 36.1499 19.9603 36.456 19.4849C36.65 18.994 36.8448 18.5493 37.0544 18.3132C37.4238 16.998 37.6317 16.0027 37.6528 14.798C37.637 14.7638 37.6528 14.5997 37.6528 14.2122C35.8576 18 25.2008 30.5 20 31C14.7992 31.5 4.05438 20.5859 3.5 19.4849Z" fill="black"/>
<defs>
<filter id="filter0_d" x="0.347168" y="2.66675" width="39.3056" height="36.3333" filterUnits="userSpaceOnUse" color-interpolation-filters="sRGB">
<feFlood flood-opacity="0" result="BackgroundImageFix"/>
<feColorMatrix in="SourceAlpha" type="matrix" values="0 0 0 0 0 0 0 0 0 0 0 0 0 0 0 0 0 0 127 0"/>
<feOffset dy="1"/>
<feGaussianBlur stdDeviation="1"/>
<feColorMatrix type="matrix" values="0 0 0 0 0 0 0 0 0 0 0 0 0 0 0 0 0 0 0.15 0"/>
<feBlend mode="normal" in2="BackgroundImageFix" result="effect1_dropShadow"/>
<feBlend mode="normal" in="SourceGraphic" in2="effect1_dropShadow" result="shape"/>
</filter>
</defs>
</svg>
