<svg width="16" height="17" viewBox="0 0 16 17" fill="none" xmlns="http://www.w3.org/2000/svg">
<path d="M6.32486 2.23925C6.32363 2.23806 6.32242 2.2369 6.32123 2.23576L6.30849 2.23149L6.24421 2.16386C5.72456 1.61719 4.87071 1.61252 4.33105 2.16704L4.33113 2.16711L4.3249 2.17322C3.7914 2.6965 3.78687 3.57747 4.32803 4.12089L8.5025 8.31289L8.76601 8.5775L8.5025 8.84211L4.29616 13.0661L4.29618 13.0661L4.29303 13.0692C3.75779 13.5942 3.75779 14.4728 4.29303 14.9978L4.29311 14.9979C4.85001 15.5444 5.7134 15.54 6.25029 15.0009L11.6835 9.5449C12.2212 9.00487 12.2256 8.15116 11.6805 7.59104L11.6796 7.5902L11.668 7.57861L11.623 7.5334L11.452 7.36176L10.8414 6.74899C10.3358 6.24179 9.66124 5.56539 8.9852 4.8885C8.3091 4.21156 7.63176 3.53438 7.12056 3.02553C6.86488 2.77102 6.65121 2.55908 6.50017 2.41045C6.4245 2.33599 6.36539 2.27825 6.32486 2.23925Z" fill="#CA3B3D" stroke="white" stroke-width="0.75"/>
</svg>
