<svg width="15" height="25" viewBox="0 0 15 25" fill="none" xmlns="http://www.w3.org/2000/svg">
<path d="M13.9858 3.72238C14.7832 5.91321 13.6498 8.34388 11.4589 9.14128C11.2378 9.22177 11.0144 9.27706 10.7899 9.31931L9.78069 11.2673C8.14351 11.2028 6.59085 10.4792 5.48925 9.26693L6.33268 7.24126C6.22189 7.04262 6.12053 6.83556 6.04003 6.6144C5.24264 4.42358 6.37608 1.99291 8.56691 1.19551C10.7577 0.398116 13.1884 1.53156 13.9858 3.72238ZM5.09866 10.206L0.579467 21.0551C0.293871 21.7415 0.58889 22.5204 1.24872 22.8527L0.603242 24.2369C0.493463 24.4723 0.595005 24.7513 0.830426 24.8611C1.06332 24.9708 1.34471 24.8704 1.45417 24.6341L2.09964 23.2498C2.44159 23.3968 2.81075 23.403 3.13741 23.2841C3.45833 23.1673 3.73667 22.9335 3.90623 22.6068L9.31247 12.1716C7.72896 12.0101 6.24013 11.3162 5.09866 10.206Z" fill="#BB3335"/>
</svg>
