<svg width="30" height="24" viewBox="0 0 30 24" fill="none" xmlns="http://www.w3.org/2000/svg">
<path d="M18.7497 0.00626587C18.5193 0.0339377 18.3051 0.13913 18.1424 0.30457L1.26688 17.1801C1.1252 17.323 1.02885 17.5046 0.989887 17.7021L0.0203975 22.5176C-0.0133058 22.6838 -0.00514361 22.8558 0.0441491 23.0181C0.0934418 23.1804 0.182318 23.3279 0.302777 23.4473C0.423236 23.5667 0.571497 23.6543 0.734215 23.7021C0.896932 23.75 1.069 23.7566 1.23492 23.7215L6.03976 22.7626C6.24103 22.7257 6.42659 22.6292 6.57244 22.4856L23.448 5.61013C23.5433 5.5151 23.6189 5.40218 23.6705 5.27787C23.7222 5.15355 23.7487 5.02028 23.7487 4.88568C23.7487 4.75107 23.7222 4.61778 23.6705 4.49346C23.6189 4.36915 23.5433 4.25625 23.448 4.16122L19.5807 0.30457C19.4362 0.157134 19.2505 0.0568569 19.048 0.0169196C18.9496 -0.00119362 18.8491 -0.00479437 18.7497 0.00626587ZM18.8668 2.47793L21.2746 4.88568L20.7952 5.36509L18.3874 2.9467L18.8668 2.47793ZM16.9385 4.40626L19.3463 6.814L5.34726 20.813L2.33226 21.4096L2.92887 18.4159L16.9385 4.40626ZM9.54483 22.3791C9.16825 22.3791 8.863 22.6844 8.863 23.0609C8.863 23.4375 9.16825 23.7428 9.54483 23.7428H29.3182C29.6947 23.7428 30 23.4375 30 23.0609C30 22.6844 29.6947 22.3791 29.3182 22.3791H9.54483Z" fill="#BB3335"/>
</svg>
