<svg width="42" height="34" viewBox="0 0 42 34" fill="none" xmlns="http://www.w3.org/2000/svg">
<path d="M26.25 0.185713C25.9275 0.224452 25.6277 0.371717 25.3999 0.603326L1.77492 24.2283C1.57658 24.4284 1.44168 24.6826 1.38714 24.9591L0.0298984 31.7006C-0.0172847 31.9333 -0.00585805 32.1741 0.0631496 32.4013C0.132157 32.6285 0.25658 32.8349 0.425217 33.0021C0.593855 33.1692 0.801414 33.2918 1.02921 33.3589C1.25701 33.4259 1.49789 33.4352 1.73018 33.3859L8.45673 32.0436C8.7385 31.9919 8.99828 31.8568 9.20247 31.6558L32.8274 8.03087C32.9609 7.89784 33.0668 7.73976 33.139 7.56572C33.2113 7.39168 33.2485 7.20511 33.2485 7.01667C33.2485 6.82823 33.2113 6.64163 33.139 6.46759C33.0668 6.29355 32.9609 6.1355 32.8274 6.00247L27.4134 0.603326C27.2111 0.396921 26.9512 0.256538 26.6676 0.200628C26.5299 0.17527 26.3892 0.170229 26.25 0.185713ZM26.4141 3.64593L29.7848 7.01667L29.1137 7.68783L25.7429 4.30218L26.4141 3.64593ZM23.7145 6.3455L27.0853 9.71624L7.48727 29.3142L3.2664 30.1494L4.10162 25.9584L23.7145 6.3455ZM13.3637 31.5067C12.8365 31.5067 12.4091 31.934 12.4091 32.4612C12.4091 32.9884 12.8365 33.4158 13.3637 33.4158H41.0455C41.5727 33.4158 42 32.9884 42 32.4612C42 31.934 41.5727 31.5067 41.0455 31.5067H13.3637Z" fill="#B5B5B5"/>
</svg>
