<svg width="23" height="22" viewBox="0 0 23 22" fill="none" xmlns="http://www.w3.org/2000/svg">
<path d="M11.5008 0.782623C9.07598 0.784963 6.71611 1.55124 4.76907 2.9685C2.82203 4.38575 1.39086 6.37898 0.686544 8.65433C-0.0177703 10.9297 0.0420451 13.3667 0.857172 15.6062C1.6723 17.8457 3.1996 19.7691 5.21392 21.0928C5.14407 21.0096 5.09227 20.9133 5.06171 20.8097C5.03114 20.7061 5.02244 20.5976 5.03614 20.4906C5.24393 18.9536 6.01409 17.5429 7.20328 16.5211C8.39247 15.4994 9.9197 14.9361 11.5008 14.9361C13.0819 14.9361 14.6091 15.4994 15.7983 16.5211C16.9875 17.5429 17.7576 18.9536 17.9654 20.4906C17.9802 20.597 17.9728 20.7053 17.9437 20.8088C17.9145 20.9123 17.8642 21.009 17.7957 21.0928C19.8106 19.7687 21.3382 17.8446 22.1531 15.6043C22.9681 13.3641 23.0273 10.9263 22.3219 8.65054C21.6166 6.37479 20.1841 4.3816 18.2357 2.96497C16.2873 1.54833 13.9263 0.783266 11.5008 0.782623ZM11.5008 14.2541C10.5418 14.2541 9.60444 13.9752 8.80711 13.4528C8.00978 12.9303 7.38834 12.1878 7.02137 11.319C6.6544 10.4502 6.55838 9.49418 6.74546 8.57187C6.93254 7.64957 7.39431 6.80237 8.07239 6.13742C8.75046 5.47247 9.61437 5.01964 10.5549 4.83618C11.4954 4.65272 12.4703 4.74688 13.3562 5.10675C14.2422 5.46661 14.9994 6.07603 15.5321 6.85792C16.0649 7.63982 16.3493 8.55908 16.3493 9.49946C16.3493 10.7605 15.8384 11.9698 14.9292 12.8615C14.0199 13.7532 12.7867 14.2541 11.5008 14.2541Z" fill="black"/>
</svg>
