<svg width="21" height="24" viewBox="0 0 21 24" fill="none" xmlns="http://www.w3.org/2000/svg">
<path d="M20.6395 11.1283C20.53 11.0624 20.4056 11.0278 20.2791 11.0278C20.1525 11.0278 20.0282 11.0624 19.9186 11.1283L16.8223 13.003V11.7769C16.8223 11.578 16.7464 11.3873 16.6112 11.2467C16.476 11.106 16.2926 11.027 16.1014 11.027H0.720908C0.529711 11.027 0.346346 11.106 0.211149 11.2467C0.0759533 11.3873 1.4265e-06 11.578 1.4265e-06 11.7769V23.2501C1.4265e-06 23.449 0.0759533 23.6397 0.211149 23.7804C0.346346 23.921 0.529711 24 0.720908 24H16.1014C16.2926 24 16.476 23.921 16.6112 23.7804C16.7464 23.6397 16.8223 23.449 16.8223 23.2501V22.0241L19.9186 23.8988C20.0282 23.9645 20.1524 23.9992 20.2789 23.9992C20.4054 23.9993 20.5297 23.9647 20.6392 23.899C20.7488 23.8332 20.8398 23.7387 20.9031 23.6248C20.9665 23.5109 20.9999 23.3817 21 23.2501V11.7769C20.9999 11.6454 20.9665 11.5163 20.9032 11.4024C20.84 11.2886 20.749 11.194 20.6395 11.1283ZM19.5582 21.9453L16.4619 20.0706C16.3526 20.005 16.2287 19.9703 16.1025 19.9701C15.9763 19.9699 15.8523 20.0042 15.7429 20.0695C15.6334 20.1348 15.5423 20.2288 15.4787 20.3422C15.4152 20.4555 15.3813 20.5843 15.3805 20.7155V22.5002H1.44181V12.5268H15.3805V14.3078C15.3807 14.4393 15.4141 14.5685 15.4774 14.6824C15.5407 14.7963 15.6317 14.8909 15.7413 14.9566C15.8509 15.0223 15.9751 15.0569 16.1016 15.0569C16.2281 15.0568 16.3524 15.0222 16.4619 14.9564L19.5582 13.0817V21.9453ZM4.55613 9.47852C5.4574 9.47852 6.33842 9.20047 7.08775 8.67955C7.83708 8.15863 8.42105 7.41823 8.76579 6.55203C9.11052 5.68582 9.20054 4.73273 9.02445 3.8133C8.84836 2.89387 8.41407 2.04942 7.77652 1.38677C7.13897 0.724126 6.32681 0.27305 5.44277 0.0906088C4.55873 -0.0918329 3.64254 0.00255599 2.81008 0.361834C1.97761 0.721113 1.26629 1.32914 0.766094 2.109C0.265894 2.88886 -0.000711604 3.80551 1.4265e-06 4.74301C0.000956914 5.99929 0.481398 7.20378 1.33573 8.09175C2.19007 8.97972 3.34839 9.47852 4.55613 9.47852ZM4.55613 1.50352C5.17208 1.50352 5.7742 1.69351 6.28635 2.04947C6.7985 2.40543 7.19767 2.91137 7.43338 3.50331C7.6691 4.09525 7.73077 4.7466 7.6106 5.375C7.49044 6.0034 7.19383 6.58063 6.75828 7.03368C6.32274 7.48673 5.76782 7.79526 5.1637 7.92026C4.55958 8.04525 3.9334 7.9811 3.36433 7.73591C2.79527 7.49072 2.30888 7.07551 1.96667 6.54278C1.62447 6.01005 1.44181 5.38372 1.44181 4.74301C1.44181 4.31759 1.52237 3.89634 1.67888 3.50331C1.83539 3.11028 2.06478 2.75316 2.35398 2.45234C2.93802 1.84482 3.73016 1.50352 4.55613 1.50352ZM14.1045 9.47852C14.7841 9.47852 15.4484 9.26886 16.0134 8.87607C16.5783 8.48327 17.0186 7.925 17.2785 7.27186C17.5384 6.61873 17.6062 5.90009 17.4734 5.20685C17.3405 4.51362 17.013 3.87695 16.5323 3.37737C16.0515 2.8778 15.4391 2.53779 14.7725 2.40034C14.1059 2.26289 13.4151 2.33419 12.7875 2.60521C12.1598 2.87623 11.6236 3.3348 11.2466 3.9229C10.8696 4.511 10.6687 5.20221 10.6694 5.90908C10.6713 6.85579 11.034 7.76311 11.6779 8.43219C12.3218 9.10126 13.1944 9.47753 14.1045 9.47852ZM14.1045 3.83565C14.4988 3.83565 14.8842 3.95726 15.212 4.18509C15.5398 4.41292 15.7952 4.73674 15.9461 5.11561C16.097 5.49448 16.1364 5.91138 16.0595 6.31358C15.9826 6.71579 15.7928 7.08524 15.514 7.37521C15.2352 7.66519 14.8801 7.86266 14.4934 7.94266C14.1067 8.02267 13.706 7.98161 13.3417 7.82467C12.9775 7.66774 12.6662 7.40198 12.4472 7.06101C12.2281 6.72004 12.1112 6.31916 12.1112 5.90908C12.1122 5.35948 12.3225 4.83267 12.6961 4.44404C13.0697 4.05541 13.5762 3.83664 14.1045 3.83565Z" fill="#BB3335"/>
</svg>
