<svg xmlns="http://www.w3.org/2000/svg" xmlns:xlink="http://www.w3.org/1999/xlink" width="482" height="437" viewBox="0 0 482 437">
    <defs>
        <path id="a" d="M28.592 52.804c.267-2.359 1.022-6.489 3.755-9.43 4.599-4.95 9.902-4.884 13.686-4.818 2.6.046 4.482.092 4.922-1.491.514-1.854-2.67-5.02-6.232-6.07-4.675-1.377-6.945-.274-8.393.829-1.338 1.021-1.973 2.043-3.162 1.097-3.013-2.402 9.534-14.453 4.183-25.212C34.607 2.191 26.709-1.526 22.622.614c-3.292 1.725-3.876 7.13-3.966 8.217-.457 5.45 4.385 11.509 2.114 14.847-2.314 3.401-3.11.342-5.185-2.718-1.738-2.561-4.374-5.122-9.55-3.894C.115 18.471-.46 22.37.23 23.823c1.155 2.429 5.29.161 10.683 3.493 3.775 2.328 5.9 6.59 5.006 7.75-.497.641-1.818.06-3.568-.523-1.936-.643-4.393-1.286-6.836-.274-2.7 1.121-4.616 4.224-4.043 5.558.404.938 1.946.696 4.72 1.212 1.557.29 8.86 1.651 10.48 5.79.301.765.843 2.737-.848 5.975h12.768"/>
    </defs>
    <g fill="none" fill-rule="evenodd">
        <path fill="#FFF5F5" d="M452.717 206.398c-1.565 11.682-8.93 66.612-49.218 91.456-53.305 32.874-107.3-22.04-166.787 2.357-51.152 20.98-26.72 94.037-80.34 124.183-27.991 15.738-68.083 17.141-93.64 1.94-79.766-47.44-101.5-306.304 43.542-395.677C211.853-34.398 371.478 11.5 426.77 98.847c6.864 10.842 33.312 52.624 25.947 107.55z"/>
        <path fill="#FFFFFE" d="M215.34 108.45c-.115-3.293 5.303-4.572 4.503-6.804-.587-1.646-4.145-2.648-6.717-2.948-12.363-1.433-11.415 7.691-28.023 10.735-2.303.422-9.174 1.678-11.061-.907-3.962-5.438 15.776-16.444 11.755-22.754-2.904-4.557-20.51-5.075-32.526 2.722-10.622 6.894-8.394 12.316-21.682 17.763-4.85 1.992-12.908 4.056-15.13 1.362-4.038-4.899 13.924-16.055 9.245-23.207-4.95-7.57-33.485-.25-35.298.227-8.358 2.195-24.896 8.076-38.02 23.584-3.396 4.015-5.874 6.274-13.286 7.995-.767.178-.644 1.304.142 1.304h191.102c.797 0 .904-1.15.121-1.308-9.63-1.933-15.02-4.737-15.126-7.764M360.347 92.832c-.048-1.42 2.252-1.97 1.914-2.932-.252-.71-1.762-1.142-2.855-1.272-5.253-.617-4.85 3.316-11.905 4.628-.978.182-3.897.723-4.698-.391-1.684-2.344 6.701-7.088 4.993-9.808-1.235-1.964-8.713-2.187-13.819 1.173-4.512 2.972-3.566 5.31-9.211 7.657-2.06.858-5.484 1.748-6.428.586-1.715-2.11 5.916-6.92 3.928-10.003-2.102-3.262-14.225-.107-14.996.099-3.551.946-10.576 3.48-16.151 10.166-1.443 1.73-2.496 2.704-5.646 3.445-.324.077-.273.562.06.562h81.187c.34 0 .386-.496.053-.563-4.092-.833-6.382-2.041-6.426-3.347"/>
        <g>
            <path fill="#F2C1CA" d="M390 116v29.467c0 3.377 2.467 6.392 5.825 6.713a6.444 6.444 0 0 0 5.38-2.048c3.272-3.544 9.191-3.051 12.073.816a12.874 12.874 0 0 1 2.561 7.729c0 2.899-.952 5.574-2.561 7.73-2.884 3.865-8.801 4.36-12.072.816a6.443 6.443 0 0 0-5.38-2.049c-3.36.32-5.826 3.335-5.826 6.714v29.465h29.437c3.375 0 6.388 2.47 6.707 5.83a6.458 6.458 0 0 1-2.046 5.387c-3.541 3.275-3.047 9.2.815 12.086a12.857 12.857 0 0 0 7.72 2.562c2.897 0 5.568-.952 7.721-2.56 3.864-2.888 4.357-8.813.816-12.088a6.465 6.465 0 0 1-2.045-5.386c.32-3.362 3.332-5.83 6.707-5.83h29.435v-73.068c0-6.785-5.492-12.286-12.273-12.286H390"/>
            <path fill="#F9DDDF" d="M471 193.322h1.254V133H471z"/>
            <path fill="#D1A1AA" d="M474.973 201h-29.4c-3.371 0-6.38 2.472-6.7 5.839a6.473 6.473 0 0 0 2.045 5.391c3.535 3.279 3.043 9.21-.815 12.101a12.822 12.822 0 0 1-7.712 2.565c-2.891 0-5.56-.954-7.712-2.565-3.857-2.891-4.35-8.822-.814-12.099a6.478 6.478 0 0 0 2.044-5.393c-.32-3.367-3.328-5.839-6.699-5.839h-29.402v29.502c0 3.381-2.462 6.4-5.816 6.722a6.43 6.43 0 0 1-5.375-2.05c-3.267-3.55-9.179-3.056-12.059.818a12.912 12.912 0 0 0-2.558 7.736c0 2.9.952 5.58 2.558 7.738 2.879 3.872 8.792 4.366 12.06.818a6.432 6.432 0 0 1 5.374-2.05c3.354.321 5.816 3.34 5.816 6.721v29.5h72.906c6.771 0 12.259-5.506 12.259-12.299V201"/>
            <path fill="#F2BEC5" d="M390.267 286.218v-29.466c0-3.376-2.465-6.392-5.823-6.713a6.444 6.444 0 0 0-5.38 2.048c-3.272 3.545-9.191 3.052-12.073-.816a12.877 12.877 0 0 1-2.563-7.73c0-2.897.954-5.573 2.563-7.728 2.882-3.868 8.801-4.361 12.072-.817a6.448 6.448 0 0 0 5.38 2.049c3.36-.321 5.824-3.337 5.824-6.714v-29.467h-29.435c-3.375 0-6.388-2.468-6.707-5.83a6.462 6.462 0 0 1 2.046-5.387c3.54-3.273 3.047-9.198-.815-12.085a12.858 12.858 0 0 0-7.722-2.562c-2.895 0-5.566.953-7.72 2.56-3.863 2.887-4.357 8.814-.815 12.088a6.461 6.461 0 0 1 2.045 5.387c-.32 3.361-3.332 5.829-6.707 5.829H305v73.07c0 6.784 5.494 12.284 12.274 12.284h72.993M480 265.276h1.254V237H480z"/>
            <path fill="#F9DDDF" d="M328 282.257h31.975V281H328zM372 282.257h11.285V281H372zM441 282.257h20.063V281H441z"/>
            <path fill="#E46E9D" d="M326.477 194.015l13.418-26.247c1.538-3.009.721-6.823-2.115-8.646a6.416 6.416 0 0 0-5.71-.639c-4.52 1.661-9.55-1.488-10.35-6.252a12.938 12.938 0 0 1 1.246-8.057 12.872 12.872 0 0 1 5.795-5.714c4.32-2.124 9.8.145 11.09 4.799a6.456 6.456 0 0 0 3.845 4.288c3.128 1.253 6.694-.306 8.23-3.314l13.42-26.246-26.141-13.475c-2.995-1.545-4.545-5.122-3.301-8.264a6.45 6.45 0 0 1 4.271-3.86c4.635-1.297 6.896-6.8 4.779-11.14a12.858 12.858 0 0 0-5.689-5.815 12.785 12.785 0 0 0-8.02-1.253c-4.746.804-7.883 5.855-6.23 10.392a6.491 6.491 0 0 1-.636 5.736c-1.816 2.846-5.616 3.667-8.61 2.124l-26.14-13.475-33.274 65.086c-3.09 6.045-.716 13.458 5.303 16.561l64.819 33.411"/>
            <path fill="#F2BEC5" d="M357.4 144.02l-1.4-.713L369.648 117l1.4.712-13.649 26.307M329.398 193.966L300 178.398l.697-1.398 29.397 15.566-.696 1.4M287.56 172.398l-5.56-2.964.71-1.434 5.56 2.963-.71 1.435"/>
            <path fill="#EFAAA1" d="M334.893 194.119c-1.024.306-2.116 1.218-2.116 1.218s-1.985-4.183-2.412-6.278c-.425-2.094-.474-2.724-.172-5.114.303-2.39.835-4.631 4.057-4.933 2.606-.243 3.625 3.293 3.168 5.084-.457 1.791-2.059 4.614-1.809 6.094.25 1.481.993 3.641.993 3.641s-.736-.005-1.71.288"/>
            <path fill="#DD5C59" d="M349.147 232.686c-5.97-3.49-13.388-7.775-15.692-13.023-2.383-5.424-2.592-22.414-2.4-25.522.024-.403.238-.766.567-.993 2.104-1.461 4.472-1.303 4.915-.754.484.594-.335 19.775 5.198 25.952 3.862 4.312 4.565 4.118 9.139 6.278 4.292 2.028 7.484.327 7.704 5.54.221 5.214-3.784 5.826-9.431 2.522"/>
            <path fill="#EFAAA1" d="M347.724 233.368c-5.191.717-8.487-2.216-9.526-3.566-1.042-1.35 2.303-2.71 3.51-4.063.516-.578.727-1.517.738-2.71.021-1.615.063-6.734-.373-9.029l10.057 1.133s-.334 5.35-.33 7.35c0 .358.042.661.129.931.382 1.246 1.635 1.774 3.627 3.41 2.429 1.995-2.642 5.828-7.832 6.544"/>
            <path fill="#EFAAA1" d="M357.043 214.49c-3.074 5.193-4.657 7.664-7.897 8.853-3.241 1.189-5.991 1.178-7.791.326-2.25-1.067-3.766-6.504-3.256-9.075.528-2.663 2.607-9.183 6.144-14.788 1.794-2.841 6.955-4.874 10.493-3.2 3.535 1.675 9.818 5.195 2.307 17.883"/>
            <path fill="#0F1425" d="M345.055 205.255c-1.604 4.901-1.24 7.126.156 10.011 1.396 2.886 4.038 4.444 5.94 4.585 2.403.177 2.953-.455 7.143-4.271 1.75-1.594 4.65-3.795 6.228-9.237.8-2.758-1.323-7.43-4.986-8.997-3.663-1.57-10.563-4.065-14.48 7.909"/>
            <path fill="#EFAAA1" d="M342.203 208.712c-.546 1.862.048 3.707 1.32 4.118 1.275.411 2.747-.765 3.29-2.629.545-1.863-.048-3.706-1.32-4.12-1.273-.41-2.747.767-3.29 2.63"/>
            <path fill="#0F1425" d="M346.91 202.797c-1.82-2.577-4.367-5.083-1.867-6.858 2.499-1.775 8.743-3.74 14.454 1.115 6.754 5.743-12.586 5.743-12.586 5.743"/>
            <path fill="#DFC9C9" d="M371.34 383.398c0 2.43-15.3 4.399-34.17 4.399-18.873 0-34.17-1.97-34.17-4.399 0-2.429 15.297-4.398 34.17-4.398 18.87 0 34.17 1.969 34.17 4.398"/>
            <path fill="#D3514F" d="M322.911 381.602c5.537-.31 10.371-1.845 10.144 1.652-.195 2.97-.448 2.718-9.912 2.771-5.545.034-10.08-.431-10.142-1.653-.065-1.223 4.372-2.464 9.91-2.77M349.482 377.238c5.259-1.876 10.414-1.84 10.185 1.65-.195 2.964.191 2.711-9.313 2.767-5.567.032-7.014-1.149-6.1-1.936 1.49-1.285 3-1.685 5.228-2.48"/>
            <path fill="#E36665" d="M341.9 225.009c4.92.01 7.56-.228 13.328 1.205 4.028 1.002 8.356 3.697 6.793 16.147 0 0-3.014 30.636-3.192 34.824-.418 9.857 2.318 11.859-5.36 11.15-8.094-.748-17.728-.355-21.633-.836-1.22-.15-.875-3.151-.4-6.836.384-2.983 2.69-26.317 2.378-37.282-.044-7.563-2.008-18.393 8.087-18.372"/>
            <path fill="#565795" d="M358.246 373.973c.294 2.91.647 3.994.647 3.994s-1.908.354-7.883-.387c-.587-.08-1.601-8.655-1.986-12.77-.402-4.212-2.233-24.195-2.095-28.932.153-4.72-.723-33.201-.723-33.201h-2.065s-5.729 14.799-6.545 20.076c-1.232 8.064-2.17 12.91-2.047 15.743.2 5.06-2.203 34.779-2.65 37.55-.446 2.772 0 5.696 0 5.696s-4.387 1.346-8.899.172c0 0 .63-42.381.77-48.634.092-4.319 3.157-26.393 4.881-38.497.03-.28.062-.542.107-.805.617-4.319 1.031-7.182 1.031-7.182s0-1.175 1.032-1.315c.525-.079 1.188-.202 3.297-.31.247-.016.524-.016.816-.047 2.002-.062 5.082-.124 9.902-.124 11.44 0 13.274.279 13.274 1.07 0 0-1.387 41.11-1.678 47.626-.308 6.516.523 37.365.814 40.277"/>
            <path fill="#373D83" d="M334.936 285c-.276.03-.538.03-.77.047.247.68.376 1.418.376 2.19 0 3.291-2.37 6.01-5.442 6.403-.042.257-.072.513-.1.785 3.521-.362 6.27-3.459 6.27-7.188 0-.772-.117-1.527-.334-2.237"/>
            <path fill="#EFAAA1" d="M299.95 221.627c-.402.951-.377 2.312-.377 2.312s-4.483-1.016-6.375-1.95c-1.891-.932-2.411-1.272-4.078-2.927-1.666-1.655-3.073-3.39-1.296-5.98 1.436-2.096 4.817-.744 5.92.669 1.108 1.413 2.299 4.297 3.604 4.994 1.304.7 3.445 1.431 3.445 1.431s-.462.55-.842 1.451"/>
            <path fill="#E36665" d="M336.978 234.505c-6.339 2.532-14.175 5.713-19.6 4.219-5.61-1.544-18.71-12.139-20.966-14.26a1.347 1.347 0 0 1-.408-1.08c.18-2.597 1.755-4.38 2.447-4.384.752-.006 14.896 12.794 23.016 12.31 5.669-.337 5.95-1.016 10.418-3.283 4.19-2.125 4.854-5.738 8.97-2.61 4.117 3.128 2.119 6.695-3.877 9.088"/>
            <path fill="#DFC9C9" d="M403.587 398.257c0 .693-6.177 1.256-13.795 1.256-7.616 0-13.792-.563-13.792-1.256 0-.694 6.176-1.257 13.792-1.257 7.618 0 13.795.563 13.795 1.257"/>
            <path fill="#E46E9D" d="M396.466 373.782c.265-2.358 1.018-6.486 3.738-9.427 7.724-8.348 17.452-2.42 18.526-6.306.512-1.852-2.657-5.018-6.204-6.067-8.965-2.65-9.043 3.893-11.505 1.925-3-2.4 9.493-14.447 4.165-25.201-2.731-5.516-10.595-9.231-14.664-7.093-3.277 1.725-3.858 7.128-3.948 8.214-.455 5.448 4.366 11.504 2.104 14.84-4.232 6.246-3.36-9.303-14.67-6.608-5.893 1.404-6.467 5.302-5.779 6.754 1.15 2.428 5.266.161 10.636 3.492 3.758 2.327 5.874 6.587 4.983 7.745-1.04 1.352-5.728-2.724-10.357-.796-2.688 1.121-4.596 4.224-4.025 5.556.401.938 1.937.696 4.7 1.212 1.549.29 8.82 1.65 10.433 5.787.3.765.838 2.736-.844 5.973h12.711"/>
            <g transform="translate(375 301)">
                <mask id="b" fill="#fff">
                    <use xlink:href="#a"/>
                </mask>
                <path fill="#D55987" d="M47.334 102.501c.616-5.468 2.372-15.052 8.71-21.876 18.002-19.378 40.67-5.62 43.17-14.638 1.194-4.3-6.189-11.644-14.455-14.078-20.892-6.151-21.074 9.035-26.807 4.467-6.995-5.572 22.116-33.53 9.702-58.492-6.365-12.798-24.691-21.425-34.171-16.46-7.64 3.999-8.99 16.54-9.2 19.06C23.224 13.13 34.46 27.19 29.188 34.933c-9.866 14.494-7.83-21.593-34.186-15.337-13.739 3.26-15.07 12.302-13.468 15.672 2.68 5.636 12.27.373 24.787 8.103 8.754 5.404 13.684 15.29 11.61 17.976-2.425 3.141-13.349-6.317-24.133-1.844-6.267 2.6-10.71 9.802-9.382 12.891.935 2.177 4.512 1.616 10.953 2.818 3.608.671 20.552 3.828 24.312 13.427.698 1.777 1.95 6.351-1.969 13.862h29.622" mask="url(#b)"/>
            </g>
            <path fill="#F2BEC5" d="M405.23 382.102c0 9.32-7.608 16.857-16.926 16.684-9.147-.167-16.304-8.049-16.304-17.237v-9.538c0-2.213 1.79-4.011 3.994-4.011h25.243c2.206 0 3.992 1.798 3.992 4.011v10.09"/>
            <path fill="#DFC9C9" d="M319.87 398.398c0 2.43-26.387 4.399-58.936 4.399-32.55 0-58.934-1.97-58.934-4.399 0-2.427 26.385-4.398 58.934-4.398 32.55 0 58.936 1.97 58.936 4.398"/>
            <path fill="#D1A1AA" d="M287.388 262.284h-55.334c-1.678 0-3.054-1.413-3.054-3.142 0-1.728 1.376-3.142 3.054-3.142h55.334c1.68 0 3.055 1.414 3.055 3.142 0 1.73-1.374 3.142-3.055 3.142"/>
            <path fill="#EFAAA1" d="M314.855 148.025c-.2.772-.855 1.613-.855 1.613s3.22 1.35 4.816 1.604c1.597.254 2.18-.725 3.977-1.023 1.795-.297 2.36-.39 2.489-2.799.102-1.947-1.842-2.714-3.181-2.32-1.34.394-3.175 2.413-4.302 2.273-1.125-.142-2.779-.63-2.779-.63s.026.548-.165 1.282M272.582 124.455c3.16 1.177 5.645-.084 6.49-.733.845-.65-1.062-1.941-1.63-2.92-.243-.418-.241-1.005-.078-1.714.214-.96.721-2.147 1.321-3.444L272.398 113s-.548 3.222-.834 4.407c-.05.213-.12.386-.212.534-.417.684-1.279.815-2.763 1.498-1.806.83.833 3.838 3.993 5.016"/>
            <path fill="#EFAAA1" d="M271 109.82c.032 4.518.124 6.713 1.767 8.69 1.644 1.976 3.42 2.99 4.903 3.106 1.85.144 4.872-2.827 5.508-4.688.662-1.927 1.77-6.936 1.597-11.895-.09-2.512-2.655-5.752-5.564-5.978-2.91-.225-8.283-.272-8.21 10.765"/>
            <path fill="#373D83" d="M264.362 252.98c-4.5-.607-8.362-2.243-8.362.835 0 2.614.22 2.407 7.936 3.029 4.522.365 8.245.232 8.362-.836.12-1.068-3.434-2.422-7.936-3.029"/>
            <path fill="#565795" d="M260.29 120.566c-5.63 5.23-14.878 17.415-16.23 23.922a2.797 2.797 0 0 0 1.999 3.273l20.23 5.509c.477.13.978-.098 1.194-.543l.727-1.491a1.034 1.034 0 0 0-.49-1.389l-15.165-8.06c4.364-8.275 7.454-10 7.454-10-.52 10.264-9.616 33.348-10.213 36.1-.737 3.4-1.295 6.173-.124 6.418 3.748.787 12.583 1.288 20.389 2.564 5.59.915 5.626-1.181 4.855-10.39-1.163-13.897 2.55-19.595 5.388-24.389 2.444-4.128 1.936-8.126 1.936-8.126l8.756 11.671a5.121 5.121 0 0 0 3.268 1.852l21.985 2.438c.926.13 1.748-.6 1.733-1.538l-.011-.726a1.527 1.527 0 0 0-1.138-1.455l-20.719-5.48s-5.845-9.465-8.61-13.36c-1.162-1.64-3.35-6.44-7.675-7.241-13.625-2.527-15.527-3.283-19.538.441"/>
            <path fill="#E36665" d="M276.203 173.06s-.172 2.238-.454 5.682c-.03.309-.047.633-.078.973-.86 10.47-2.502 30.081-3.144 34.56-.877 6.022-7.432 26.915-11.14 37.787-.19.54-.69.895-1.252.88l-2.192-.046a1.298 1.298 0 0 1-1.266-1.436c.64-7.29 5.319-30.87 6.43-36.027 1.003-4.726 1.705-21.975-.86-29.773-.422-1.297-2.332-1.22-2.69.093-1.786 6.362-5.743 20.214-8.123 26.252-2.768 6.995-34.06-1.591-39.678-3.212a.892.892 0 0 1-.641-.788l-.112-1.56c-.046-.54.392-1.003.924-.957 5.384.448 30.747 2.3 31.934-2.502 1.081-4.4 3.255-17.218 4.57-25.17v-.016c.077-.402.14-.772.203-1.143.531-3.274.877-5.466.877-5.466s.108-1.128 1.078-1.159h.126c.203-.015.453-.03.797-.03 1.316-.016 4.116.077 12.206.91 4.632.48 7.619.819 9.496 1.097.284.03.55.077.783.108 1.799.309 2.239.571 2.206.942"/>
            <path fill="#373D83" d="M214.813 213.764c-1.053-4.505-2.697-7.976-3.676-7.754-.978.224-2.035.968.134 8.562 1.273 4.45 2.699 7.976 3.676 7.755.978-.224.918-4.057-.134-8.563"/>
            <path fill="#4D5091" d="M257.897 144.605L254.82 143l-3.82 6.182 5.079 1.358c.634-1.969 1.252-3.97 1.818-5.935"/>
            <path fill="#0F1425" d="M282.785 113.581c-1.795 4.607-.692 13.025-2.24 20.484-1.548 7.458-13.182 19.39-23.207 10.905-11.523-9.75 3.253-20.559 5.95-27.452 3.027-7.743 2.943-13.786 6.97-18.046 3.84-4.06 9.545-2.352 11.924-.306 4.964 4.273 2.1 10.578.603 14.415"/>
            <path fill="#D1A1AA" d="M213.593 398.38l-.196-.013c-.874-.104-1.493-.878-1.385-1.727l17.508-138.277c.106-.85.92-1.465 1.773-1.349.873.104 1.494.878 1.384 1.727L215.17 397.018c-.099.786-.785 1.361-1.577 1.361M307.097 398.38c-.792 0-1.478-.576-1.577-1.362l-17.507-138.275c-.11-.85.51-1.623 1.384-1.727a1.578 1.578 0 0 1 1.773 1.349l17.508 138.275c.108.85-.511 1.623-1.385 1.727l-.196.012"/>
            <path fill="#D1A1AA" d="M296.062 311.513h-71.515c-.856 0-1.547-.561-1.547-1.256s.691-1.257 1.547-1.257h71.515c.856 0 1.547.562 1.547 1.257 0 .695-.691 1.256-1.547 1.256M301.973 358.513h-83.424c-.857 0-1.549-.563-1.549-1.256 0-.695.692-1.257 1.549-1.257h83.424c.856 0 1.548.562 1.548 1.257 0 .693-.692 1.256-1.548 1.256"/>
            <path fill="#D3514F" d="M273.697 173.934c0-.634.083-1.254.25-1.828-.207-.03-.444-.076-.696-.106a7.42 7.42 0 0 0-.251 1.934c0 2.252.947 4.276 2.438 5.606.028-.332.043-.65.07-.952-1.115-1.178-1.811-2.84-1.811-4.654M250.94 170c-.328 0-.566.015-.76.03.134.508.208 1.03.208 1.583 0 1.926-.849 3.658-2.194 4.822-.06.359-.12.717-.194 1.105a7.141 7.141 0 0 0 3.135-5.927c0-.553-.058-1.105-.194-1.613"/>
        </g>
    </g>
</svg>
