<svg xmlns="http://www.w3.org/2000/svg" width="227" height="163" viewBox="0 0 227 163">
    <g fill="none" fill-rule="evenodd">
        <path fill="#78C2FF" d="M30 74H18v10l1.832-1.74H30V74"/>
        <path fill="#0E2D3D" d="M13.975 75.634s2.712 1.41 2.042 5.25c-.671 3.84-.968 4.357-.217 5.856.75 1.5 1.635 7.9.96 9.113-.676 1.213-8.357-5.33-9.422-10.82-1.066-5.49.675-7.932 1.29-8.84.615-.91 2.953-1.852 5.347-.56"/>
        <path fill="#285173" d="M13 92s1.056.272 1.648 1.377c.412.768.446 2.475.506 2.797.06.322.846 3.96.846 3.96L13.801 102 13 92"/>
        <path fill="#1D3B54" d="M25.135 157.866s2.13 2.437 1.837 2.823c-.292.387-2.532.441-3.895 0-1.364-.441-1.395-3.298-2.013-4.525-.258-.514.295-2.032 1.071-2.141.778-.11 1.623.213 1.623.213s-.806 1.728 1.377 3.63"/>
        <path fill="#EEA886" d="M22.522 154.285s.321 1.177.438 2.3c.097.933 1.085 2.913 1.038 3.163-.046.25-1.3.477-1.81-.168-.51-.646-.839-2.523-.951-3.645-.105-1.046-.237-1.563-.237-1.563s1.035-.776 1.522-.087"/>
        <path fill="#1D3B54" d="M7.211 157.905s2.053 2.398 1.76 2.784c-.292.387-2.531.442-3.894 0-1.364-.442-1.396-3.299-2.013-4.526-.258-.514.295-2.032 1.071-2.141.777-.11 1.688.236 1.688.236s-.795 1.747 1.388 3.647"/>
        <path fill="#EEA886" d="M6.96 154.456s.084 1.482.218 2.53c.134 1.049.854 3.434.82 3.722-.033.29-.937.552-1.305-.193-.369-.746-.653-2.905-.687-4.21-.034-1.307.084-2.158.084-2.158s.519-.486.87.309"/>
        <path fill="#EEA886" d="M15.16 110.763s1.7 7.904 2.09 9.895c.39 1.99 1.483 11.63 1.6 13.268.117 1.64 1.773 7.815 1.695 8.4-.078.586 2.455 12.345 2.455 12.345s-.865.696-1.777.063c-.47-.326-5.559-11.01-5.559-13.936 0-4.046-2.992-9.327-3.378-10.232-3.586-8.408-2.88-10.98-3.348-11.526-.468-.545-.51.338-.782 1.547-.273 1.21-.858 11.669-1.21 12.996-.35 1.327-.078 5.814-.273 8.079-.195 2.263-1.052 12.5-1.052 12.5s-.663 1.04-1.594.028c-.2-.218-1.608-11.405-1.647-14.098-.039-2.692-.08-6.406-.156-7.57-.723-11.159-2.5-12.753.3-20.65 5.24-14.786 12.636-1.11 12.636-1.11"/>
        <path fill="#1D3B54" d="M4.25 110s-4.8 6.603-2.733 20.648c0 0 11.384 1.522 17.483-1.761 0 0-2.522-14.481-3.436-16.734-.914-2.253-11.314-2.152-11.314-2.152M20.206 156v2h.588v-1.546l-.588-.454M4.207 156v2h.587v-1.546L4.207 156"/>
        <path fill="#EDDAD3" d="M10.532 90.092s1.92.836 2.586.959c.666.122 3.252 3.219 3.705 4.35.453 1.13 0 2.825-.933 4.815-.934 1.99-.053 2.655-.48 4.645-.426 1.99-.8 6.205-.72 7.311.08 1.106-10.78 1.315-13.26-.7 0 0 2.492-3.44 2.812-3.932.32-.492.053-3.17-.24-3.857-.293-.69-2.245-6.54-2.245-6.54s-1.596-4.494-.154-5.527c1.253-.897 4.667-1.216 5.28-1.413.613-.197 2.396-.282 3.65-.11"/>
        <path fill="#D6C5BE" d="M10.046 93l.954-.826L10.171 90s-.278 1.21-.125 3"/>
        <path fill="#EEA886" d="M11 88.371s-.035.434-.076 1.035c-.017.267-.037.565-.055.874-.051.875-.093 1.822-.068 2.304 0 0-1.31 1.805-2.801-2.106 0 0 .627-1.61.155-3.807-.472-2.195 2.845 1.7 2.845 1.7"/>
        <path fill="#EEA886" d="M11 91v2l-2-1.878L11 91"/>
        <path fill="#D6C5BE" d="M12 93l-1.1-.808L7.198 90 6 90.685 12 93"/>
        <path fill="#285173" d="M7.578 90s2.303 3.598 2.413 5.18c.11 1.583-.855 13.426-1.629 17.233-.773 3.806-6.362-.43-6.362-.43s3.755-6.256 2.314-11.265c-1.442-5.01-1.966-7.013-1.966-7.013s.496-2.79 2.254-3.182A35.661 35.661 0 0 1 7.578 90M14.967 96.234s.286 1.587-.827 5.094c0 0 .017 4.487.049 5.889.031 1.402.663 6.444.663 6.444l-1.521 1.27c-.222.205-.497-.078-.466-.478.312-4.035 1.326-19.34-.865-23.453l.88.407s1.562 2.005 2.087 4.827"/>
        <path fill="#FAE6DE" d="M12.816 91.696L14 92l-2-3 .816 2.696M11 91.936L10.018 93 8 90.22l.65-.22L11 91.936"/>
        <path fill="#EB4747" d="M13 100.188l.193-.188L15 102.812l-.193.188L13 100.188"/>
        <path fill="#EEA886" d="M12.35 102.734s.213.004.352-.106c.241-.19.328-.66.754-.626.425.034.622 1.434.515 1.699-.106.265-.697.397-1.57.215-.872-.183-.05-1.182-.05-1.182"/>
        <path fill="#EEA886" d="M13.29 102.413s1.096-.175 2.36-.303c1.11-.113 2.434-.15 2.563-.06.144.101-1.08.188-2.167.333-1 .133-.762.182-.762.182s-.066-.016 1.076-.066c1.229-.054 2.493-.053 2.618.062.06.057.018.094-.424.147.266-.006.303.027.313.077.054.26-1.738.466-2.45.548.548-.062.96-.08.764.094-.225.199-2.782.44-3.683.565-.983.137-.207-1.579-.207-1.579"/>
        <path fill="#285173" d="M4.01 91.035c-.606-.199-2.382.441-2.682 2.292-.3 1.85-.42 3.906-.7 4.902-.28.997-.995 5.413-.395 5.779.601.366 1.738.7 3.333.7 1.647 0 8.034.292 8.034.292l.4-2.306s-2.426-.127-3.682-.32c-1.119-.173-2.67-.657-4.495-.86 0 0 .387-2.736.667-3.508.28-.773 2.242-6.076-.48-6.971"/>
        <path fill="#EEA886" d="M16.533 102l.467 1-1-.63.533-.37"/>
        <path fill="#E8734D" d="M11 107l6.89-1.333L23 95l-7.354.754L11 107"/>
        <path fill="#EEA886" d="M20.473 103s.28-.206.53-.493c.25-.288 1.067-1.385.992-1.454-.075-.069-1.288-.092-1.508.064-.22.156.217.218.217.218s-.663.053-.616.201c.047.148.447.107.447.107s-.534.08-.453.21c.08.13.338.129.338.129s-.474.047-.415.188c.058.142.807.275.707.393-.1.118-.239.437-.239.437"/>
        <path fill="#EEA987" d="M13.446 78.127s4.128 1.366 1.887 8.87-7.88-.87-7.29-5.441c.59-4.572 5.403-3.429 5.403-3.429"/>
        <path fill="#0E2D3D" d="M15.723 83.71s-1.96 1.954-5.242 2.198c0 0-1.261 1.502-1.358 2.092 0 0-2.927-5.07.671-8.109 3.599-3.038 7.252 2.566 5.929 3.818"/>
        <path fill="#EEA987" d="M8.997 84.076c-.019-.391-.24-1.282-.777-1.033-.537.25.033 2.064.388 1.952 0 0 .433.007.389-.919"/>
        <path fill="#A77860" d="M11 89.39c-.017.186-.037.395-.054.61-1.68-.804-1.938-1.964-1.946-2 1.197 1.5 2 1.39 2 1.39"/>
        <path fill="#869135" d="M79.037 101s-.527 3.897 2.408 6.89c2.936 2.992 9.555 1.925 9.555 1.925s-1.095-3.537-3.495-4.994c-2.399-1.458-7.113-1.96-8.468-3.821"/>
        <path fill="#48753A" d="M83.265 94s-2.585 4.801-.365 10.047C85.12 109.293 93.98 111 93.98 111s.365-5.092-1.938-8.099c-2.302-3.007-7.989-5.858-8.776-8.901"/>
        <path fill="#BBD070" d="M192.517 32s5.02 6.849.785 10.486c-4.234 3.638-4.732-.424-4.732-.424s-2.265.134 2.237-4.5c2.123-2.185 1.71-5.562 1.71-5.562"/>
        <path fill="#97A43C" d="M203.39 31s2.892 5.967-3.915 11.557C192.668 48.147 192.7 52 192.7 52s-4.792-13.828 10.689-21"/>
        <path fill="#48753A" d="M190.877 47.992c-2.682-.07 1.245-6.391 5.612-7.674 4.366-1.283 7.854-.75 10.511-2.318 0 0-2.92 10.333-16.123 9.992"/>
        <path fill="#78C2FF" d="M85.043 94h.913V27h-.913z"/>
        <path fill="#78C2FF" d="M45 74.957h47v-.913H45z"/>
        <path fill="#4DA8F2" d="M110.638 48.673c-3.842 0-6.967 3.285-6.967 7.322v64.009c0 4.038 3.125 7.323 6.967 7.323h90.724c3.842 0 6.967-3.285 6.967-7.323v-64.01c0-4.036-3.125-7.321-6.967-7.321h-90.724zM201.362 128h-90.724c-4.211 0-7.638-3.586-7.638-7.996v-64.01c0-4.408 3.427-7.994 7.638-7.994h90.724c4.212 0 7.638 3.586 7.638 7.995v64.009c0 4.41-3.426 7.996-7.638 7.996z"/>
        <path fill="#C2BEBC" d="M70.145.707a80.418 80.418 0 0 0-2.98-.027l-.008-.676a76.332 76.332 0 0 1 3.006.027l-.018.676m-8.93.279l-.063-.673c.98-.095 1.99-.168 3-.22l.033.675c-1 .052-2 .124-2.97.218m14.885.086a98.44 98.44 0 0 0-2.975-.23l.04-.675c.979.06 1.986.138 2.995.231l-.06.674m5.929.712c-1-.145-1.995-.279-2.96-.394l.078-.672c.97.117 1.972.25 2.976.397l-.094.67m-26.709.06l-.128-.663a57.92 57.92 0 0 1 2.97-.51l.093.67c-.99.143-1.977.313-2.935.504m32.603.93a154.44 154.44 0 0 0-2.942-.527l.109-.666c.963.162 1.957.34 2.955.529l-.122.665m-38.364.56l-.2-.644a50.943 50.943 0 0 1 2.894-.84l.164.656c-.964.25-1.925.528-2.858.829m44.221.65c-.99-.222-1.973-.433-2.924-.63l.133-.663c.953.198 1.94.41 2.934.632l-.143.66m5.825 1.38c-.99-.247-1.968-.485-2.908-.708l.15-.659c.943.224 1.925.462 2.916.71l-.158.656m-55.584.147l-.278-.614a47.55 47.55 0 0 1 2.775-1.192l.24.631c-.925.362-1.845.758-2.737 1.175m61.382 1.353c-.997-.267-1.971-.523-2.896-.763l.164-.655c.927.24 1.903.497 2.901.764l-.17.654M38.8 8.383l-.353-.573a47.236 47.236 0 0 1 2.602-1.543l.317.596c-.866.476-1.73.987-2.566 1.52m72.384.06c-.961-.266-1.924-.532-2.889-.796l.173-.652c.966.263 1.93.53 2.89.796l-.174.652m5.779 1.604a73.756 73.756 0 0 1-1.298-.352l-1.595-.447.177-.652 1.595.447c.422.119.855.237 1.286.349l-.165.655m5.869 1.315a96.91 96.91 0 0 1-2.945-.608l.143-.661c.944.211 1.928.414 2.924.604l-.122.665m-88.85.544l-.423-.523a49.023 49.023 0 0 1 2.388-1.865l.39.55a47.694 47.694 0 0 0-2.356 1.838m94.78.425c-1.013-.141-2.013-.292-2.97-.448l.105-.667c.953.154 1.947.304 2.956.445l-.09.67m5.962.712a186.302 186.302 0 0 1-2.984-.329l.078-.671c.958.114 1.957.223 2.971.327l-.065.673m5.977.528a282.588 282.588 0 0 1-2.99-.245l.057-.673c.955.083 1.958.165 2.983.243l-.05.675m5.985.403a445.417 445.417 0 0 1-2.993-.19l.043-.674c.958.064 1.936.126 2.988.189l-.038.675m5.994.332c-1.002-.052-2.002-.105-3.002-.16l.036-.676c1 .055 1.999.108 3 .16l-.034.676m5.99.308l-2.85-.147-.142-.007.033-.676.142.008 2.85.146-.033.676m5.97.33a653.22 653.22 0 0 0-2.982-.171l.035-.675c.998.055 1.993.111 2.985.171l-.038.675m5.973.402c-.949-.072-1.953-.144-2.985-.213l.043-.675c1.034.07 2.041.142 2.992.214l-.05.674m5.961.528c-.957-.098-1.959-.193-2.978-.283l.058-.674c1.022.09 2.027.186 2.987.284l-.067.673M29.615 16l-.479-.47c.7-.737 1.424-1.456 2.15-2.14l.453.497a52.602 52.602 0 0 0-2.124 2.113m152.896.587c-.955-.134-1.953-.263-2.965-.385l.078-.671c1.016.122 2.018.252 2.977.386l-.09.67m5.896.975c-.949-.183-1.94-.36-2.941-.525l.107-.668c1.008.166 2.004.344 2.958.529l-.124.664m5.82 1.329c-.933-.25-1.907-.49-2.898-.715l.145-.66c1 .227 1.982.47 2.923.72l-.17.655M25.72 20.566l-.525-.416a61.046 61.046 0 0 1 1.91-2.361l.504.442a59.6 59.6 0 0 0-1.89 2.335m174.194.122a60.232 60.232 0 0 0-2.82-.965l.196-.646c.976.307 1.936.636 2.853.976l-.229.635m5.449 2.399a45.122 45.122 0 0 0-2.686-1.284l.263-.62c.938.411 1.856.849 2.726 1.302l-.303.602M22.277 25.499l-.56-.366a70.067 70.067 0 0 1 1.683-2.532l.543.391a70.066 70.066 0 0 0-1.666 2.507m188.135.726a36.107 36.107 0 0 0-2.462-1.67l.346-.577a36.71 36.71 0 0 1 2.508 1.7l-.392.547m4.424 3.96a30.719 30.719 0 0 0-2.118-2.083l.439-.508a31.63 31.63 0 0 1 2.164 2.128l-.485.463m-195.583.53l-.585-.32c.48-.905.976-1.8 1.474-2.661l.573.343a81.794 81.794 0 0 0-1.462 2.638m199.161 4.221a30.463 30.463 0 0 0-1.672-2.466l.528-.41a30.888 30.888 0 0 1 1.71 2.52l-.566.356M16.605 36.143l-.605-.28c.419-.934.853-1.862 1.289-2.757l.596.3c-.433.889-.864 1.81-1.28 2.737m204.418 4.163a33.663 33.663 0 0 0-1.181-2.747l.596-.3c.437.9.843 1.844 1.205 2.804l-.62.243m1.679 5.767a73.48 73.48 0 0 0-.254-1.099 39.847 39.847 0 0 0-.48-1.823l.639-.191c.174.603.338 1.227.487 1.855.088.368.175.74.257 1.108l-.65.15m1.086 5.954a68.397 68.397 0 0 0-.48-2.988l.653-.124c.186 1.015.35 2.03.487 3.017l-.66.095m.533 6.022a56.936 56.936 0 0 0-.188-3.017l.662-.061c.093 1.03.157 2.058.19 3.054l-.664.024m.498 6.096l-.662-.065a44.7 44.7 0 0 0 .178-3.01l.666.018a45.691 45.691 0 0 1-.182 3.057m-1.035 6.027l-.644-.17c.244-.953.454-1.942.624-2.939l.656.115a37.647 37.647 0 0 1-.636 2.994m-2.045 5.761l-.602-.289c.416-.894.796-1.828 1.13-2.772l.626.228a32.59 32.59 0 0 1-1.154 2.833m-3.098 5.258l-.535-.403a30.274 30.274 0 0 0 1.641-2.495l.572.347a31.317 31.317 0 0 1-1.678 2.55m-4.045 4.549l-.45-.498c.732-.682 1.433-1.4 2.086-2.132l.493.454a33.057 33.057 0 0 1-2.129 2.176m-4.774 3.745l-.363-.567a37.31 37.31 0 0 0 2.422-1.741l.405.536a38.222 38.222 0 0 1-2.464 1.772m-5.28 2.972l-.282-.612c.909-.435 1.8-.897 2.65-1.374l.321.592c-.862.484-1.767.953-2.689 1.394m-5.596 2.283l-.215-.64c.953-.33 1.893-.682 2.796-1.05l.247.627c-.913.372-1.864.73-2.828 1.063m-5.782 1.698l-.156-.656a69.61 69.61 0 0 0 2.88-.775l.184.649c-.943.277-1.921.54-2.908.782m-5.892 1.21l-.108-.667c.991-.166 1.979-.349 2.936-.545l.131.662c-.965.198-1.96.383-2.96.55m-5.962.796l-.067-.673a97.243 97.243 0 0 0 2.967-.348l.087.67c-.978.132-1.984.249-2.987.351m-21.01.167a65.782 65.782 0 0 1-2.997-.306l.086-.67c.011.001 1.102.147 2.966.302l-.055.674m15.01.27l-.029-.675c1-.046 2.004-.105 2.984-.176l.048.675c-.986.07-1.996.13-3.002.176m-9.014.064c-1.003-.03-2.013-.073-3-.128l.036-.675c.982.055 1.986.098 2.984.128l-.02.675m3.676.056l-.674-.002.004-.676c.98.006 2-.001 2.99-.02l.012.675a117.2 117.2 0 0 1-2.332.023"/>
        <path fill="#73C0FF" d="M198.5 52.935c-7.972 0-14.435-6.463-14.435-14.435s6.463-14.435 14.435-14.435 14.435 6.463 14.435 14.435-6.463 14.435-14.435 14.435zm18.786-19.302a19.288 19.288 0 0 0-2.063-4.972l2.1-3.158-5.826-5.826-3.158 2.1a19.3 19.3 0 0 0-4.972-2.063L202.62 16h-8.24l-.747 3.714a19.3 19.3 0 0 0-4.972 2.063l-3.158-2.1-5.826 5.826 2.1 3.158a19.31 19.31 0 0 0-2.063 4.972L176 34.38v8.239l3.714.747a19.292 19.292 0 0 0 2.063 4.972l-2.1 3.158 5.826 5.826 3.158-2.1a19.258 19.258 0 0 0 4.972 2.063L194.38 61h8.24l.747-3.714a19.258 19.258 0 0 0 4.972-2.063l3.158 2.1 5.826-5.826-2.1-3.158a19.27 19.27 0 0 0 2.063-4.972L221 42.62v-8.24l-3.714-.747z"/>
        <path fill="#DAE8F5" d="M202 47.723v64.552c0 4.266-3.445 7.725-7.695 7.725h-95.61c-4.25 0-7.695-3.459-7.695-7.725V47.723C91 43.457 94.445 40 98.695 40h95.61c4.25 0 7.695 3.457 7.695 7.723"/>
        <path fill="#78C2FF" d="M126.18 83.379c-6.794 2.43-14.117.237-18.53-4.95a16.784 16.784 0 0 1-3.03-5.25 16.786 16.786 0 0 1-.22-10.705c1.527-4.876 5.241-9.002 10.42-10.854 1.71-.611 3.454-.93 5.175-.982 7.111-.215 13.86 4.122 16.385 11.182 3.136 8.77-1.43 18.422-10.2 21.559zm15.5-23.454c-3.368-9.417-12.368-15.2-21.852-14.915-2.297.069-4.62.494-6.903 1.31-6.909 2.47-11.863 7.974-13.898 14.475a22.393 22.393 0 0 0 .293 14.28 22.369 22.369 0 0 0 4.041 7.001c5.886 6.92 15.653 9.845 24.714 6.604 11.698-4.183 17.789-17.057 13.605-28.755z"/>
        <path fill="#1A598C" d="M104.382 62L99 60.27c2.038-6.701 7-12.373 13.92-14.92a21.947 21.947 0 0 1 6.912-1.35l.168 5.8a16.49 16.49 0 0 0-5.182 1.013c-5.188 1.909-8.908 6.162-10.436 11.187"/>
        <path fill="#2273B5" d="M104 74.708L98.865 77a23.404 23.404 0 0 1-.842-16l5.345 1.712A17.543 17.543 0 0 0 104 74.708"/>
        <path fill="#4DA8F2" d="M102.14 82A23.462 23.462 0 0 1 99 76.29l4.647-2.29A17.606 17.606 0 0 0 106 78.28L102.14 82"/>
        <path fill="#6EB2EB" d="M101.709 100.813a8.622 8.622 0 0 1 8.486-4.907 8.517 8.517 0 0 1 2.992.802 8.578 8.578 0 0 1 3.948 3.79 8.603 8.603 0 0 1 .157 7.688 8.612 8.612 0 0 1-1.515 2.226 8.621 8.621 0 0 1-14.068-9.6zm2.874 14.08c4.62 2.186 9.963 1.024 13.288-2.508a11.498 11.498 0 0 0 2.022-2.967 11.483 11.483 0 0 0-.21-10.256 11.447 11.447 0 0 0-5.266-5.055 11.478 11.478 0 0 0-3.991-1.07c-4.628-.374-9.215 2.099-11.319 6.545-2.715 5.74-.264 12.595 5.476 15.31z"/>
        <path fill="#1A598C" d="M116.56 100.415L119.488 99c1.855 3.266 2.082 7.269.24 10.858a12.185 12.185 0 0 1-2.322 3.142L115 110.911a9.125 9.125 0 0 0 1.74-2.357c1.382-2.69 1.21-5.69-.18-8.14"/>
        <path fill="#2273B5" d="M113 96.8l1.05-2.8c.236.098.471.205.704.321 2.34 1.162 4.132 3.048 5.246 5.282L117.461 101c-.835-1.676-2.178-3.09-3.932-3.961a8.096 8.096 0 0 0-.529-.24"/>
        <path fill="#4DA8F2" d="M111.132 94a6.414 6.414 0 0 1 1.868.443L112.4 96a4.76 4.76 0 0 0-1.4-.333l.132-1.667M200 47.723v64.552c0 4.266-3.443 7.725-7.69 7.725H150V40h42.31c4.247 0 7.69 3.457 7.69 7.723"/>
        <path fill="#E3F2FF" d="M193 52h-35c-.552 0-1-.333-1-.743v-1.513c0-.411.448-.744 1-.744h35c.553 0 1 .333 1 .744v1.513c0 .41-.447.743-1 .743"/>
        <path fill="#73C0FF" d="M193 61h-35c-.552 0-1-.333-1-.744v-1.512c0-.411.448-.744 1-.744h35c.553 0 1 .333 1 .744v1.512c0 .411-.447.744-1 .744M190.64 112h-30.28c-1.856 0-3.36-1.485-3.36-3.317V70.317c0-1.832 1.504-3.317 3.36-3.317h30.28c1.855 0 3.36 1.485 3.36 3.317v38.366c0 1.832-1.505 3.317-3.36 3.317"/>
        <path fill="#A2D2FA" d="M156.31 100c-1.363-.665-2.31-2.126-2.31-3.822V70.204c0-2.322 1.774-4.204 3.963-4.204h4.678c1.416 0 2.658.788 3.359 1.973h-6.467c-1.78 0-3.223 1.532-3.223 3.42V100"/>
        <path fill="#B2DCFF" d="M162.15 98h-4.544c-.574 0-1.117-.13-1.606-.365V70.27c0-1.806 1.401-3.271 3.131-3.271h6.283c.371.618.586 1.35.586 2.133V93.98c0 2.22-1.723 4.021-3.85 4.021"/>
        <path fill="#78C2FF" d="M69 37.957h84v-.914H69z"/>
        <path fill="#4DA8F2" d="M77.5 23.67a3.835 3.835 0 0 0-3.831 3.83 3.835 3.835 0 0 0 3.831 3.831 3.835 3.835 0 0 0 3.83-3.83 3.834 3.834 0 0 0-3.83-3.832zm0 8.33a4.505 4.505 0 0 1-4.5-4.5c0-2.481 2.019-4.5 4.5-4.5s4.5 2.019 4.5 4.5-2.019 4.5-4.5 4.5z"/>
        <path fill="#EEA886" d="M66.098 84.015s3.867.71 3.902 4.08c.034 3.368-2.963 8.247-4.91 7.886-1.948-.36-4.163-2.14-4.088-4.189.075-2.049.627-4.742 1.525-6.22.898-1.477 2.49-1.63 3.571-1.557"/>
        <path fill="#E8734D" d="M61.026 89.878s.008.73 1.417 1.308c1.409.579 3.997-.232 4.647-.097.649.134.842-.19.842-.19l.045.715.55.386s.387-1.902 1.544-2.067c1.157-.166 2.121-5.623-2.868-6.656 0 0-3.695-1.036-4.647.899-.954 1.934-1.708 4.34-1.53 5.702"/>
        <path fill="#9CD2FE" d="M91.058 152H57.943A4.943 4.943 0 0 1 53 147.058v-33.115A4.943 4.943 0 0 1 57.943 109h24.475c1.744 1.094 4.077 1.35 5.875 1.35.449 0 .864-.017 1.229-.04v1.246c0 3.828 2.808 7 6.478 7.568v27.934A4.943 4.943 0 0 1 91.058 152"/>
        <path fill="#87BFDB" d="M88.789 111c-1.772 0-4.071-.19-5.789-1h7v.971c-.36.017-.769.029-1.211.029"/>
        <path fill="#96CFFD" d="M98 120c-3.965-.56-7-3.694-7-7.475V110h1.66c2.949 0 5.34 2.186 5.34 4.882V120"/>
        <path fill="#E3F2FF" d="M94 45.22v23.56c0 2.33-1.928 4.22-4.308 4.22H55.308C52.928 73 51 71.11 51 68.78V45.22c0-2.33 1.929-4.22 4.308-4.22h34.384C92.072 41 94 42.89 94 45.22M91.971 120H77.028c-.568 0-1.028-.293-1.028-.655v-1.69c0-.361.46-.655 1.028-.655h14.943c.568 0 1.029.294 1.029.655v1.69c0 .362-.46.655-1.029.655M90.632 147H78.368C77.06 147 76 145.98 76 144.723v-19.446c0-1.257 1.06-2.277 2.368-2.277h12.264c1.308 0 2.368 1.02 2.368 2.277v19.446c0 1.257-1.06 2.277-2.368 2.277M60.002 120.924a5.987 5.987 0 0 1 2.36-4.691 5.998 5.998 0 0 1 9.277 2.72v.003a5.975 5.975 0 0 1 .359 2.122 5.977 5.977 0 0 1-1.255 3.595 5.985 5.985 0 0 1-4.82 2.325 6 6 0 0 1-5.922-6.074zm3.432 7.656a7.983 7.983 0 0 0 2.463.42 7.989 7.989 0 0 0 6.429-3.1 7.958 7.958 0 0 0 1.663-5.332 8.004 8.004 0 0 0-12.801-5.958 8.004 8.004 0 0 0 2.246 13.97z"/>
        <path fill="#1A598C" d="M69.576 125l1.424.85c-1.336 1.327-3.436 2.173-5.784 2.15a9.183 9.183 0 0 1-2.216-.291l.578-1.316c.522.137 1.08.213 1.662.219 1.76.017 3.334-.617 4.336-1.612"/>
        <path fill="#2273B5" d="M72.766 120.122l1.227-.122c.006.2.008.401.007.604-.015 2.034-.396 3.903-1.028 5.396L72 124.62c.474-1.12.76-2.52.77-4.045.001-.152 0-.303-.004-.453"/>
        <path fill="#2273B5" d="M72.299 121a4.86 4.86 0 0 0-.298-1.429l-.001-.003 1.602-.568c.223.601.362 1.242.398 1.91l-1.701.09"/>
        <path fill="#4DA8F2" d="M61 115.622A7.572 7.572 0 0 1 65.783 114c3.33.045 6.144 2.248 7.217 5.307l-1.83.692-.001-.003c-.805-2.295-2.915-3.947-5.412-3.98a5.688 5.688 0 0 0-3.615 1.24L61 115.621"/>
        <path fill="#D6D6D6" d="M10 55l9-16-4.571 2.358L10 55"/>
        <path fill="#E8E8E8" d="M11 53l.432-8.197L14 43l-3 10"/>
        <path fill="#C2C2C2" d="M16.884 43L18 44.642 10 55l6.884-12"/>
        <path fill="#EEA886" d="M73.367 111.304s.317-.042.502-.233c.318-.329.348-1.023.99-1.07.64-.047 1.232 1.922 1.13 2.327-.103.404-.955.73-2.295.664-1.34-.066-.327-1.688-.327-1.688"/>
        <path fill="#EEA886" d="M75.03 108.904s1.245-.653 2.712-1.215c1.286-.493 2.877-.844 3.05-.62.384.498-1.117.85-2.364 1.422-1.148.527-.95.443-.95.443s-.086-.029 1.264-.366c1.452-.363 2.97-.59 3.163-.315.094.135.263.602-.346.583.317-.063.267-.112.298.016.163.662-1.906 1.524-2.727 1.866.632-.259 1.12-.383.95.103-.193.557-3.166 1.646-4.199 2.136-1.126.534-.851-4.053-.851-4.053"/>
        <path fill="#D4D8E8" d="M56 94.087s-2.687-.196-4.584 0c-1.896.194-4.517 1.754-6.103 2.204-1.587.45-5.415 3.034-5.31 3.388.102.353 1.585 4.557 4.327 7.974C46.676 110.576 56 94.087 56 94.087"/>
        <path fill="#A9ADBA" d="M50 95s-3.305 2.038-4.457 3.907C44.393 100.775 44 103 44 103l6-8"/>
        <path fill="#1C4154" d="M52.155 157.247s.801.933 1.264 1.18c.463.247 5.994 1.29 6.37 1.783.375.494.375 2.442-1.052 2.442-1.426 0-6.182-.028-6.983 0-.8.027-4.184.769-4.532 0-.348-.768-.316-4.353.302-5.212.62-.86 4.63-.193 4.63-.193"/>
        <path fill="#2A617D" d="M51.89 156l.11.734s-.957.5-3 .13v-.759l2.89-.105"/>
        <path fill="#1C4154" d="M17.611 155s-.57.792-.852 1.82c-.18.656-1.036 3.72-.668 4.463.369.745 3.27.855 4.72.58 1.45-.276 4.605.302 4.928-.441.322-.745.506-1.83-.438-2.252-.944-.422-3.108-1.524-3.5-2.682-.39-1.157-4.19-1.488-4.19-1.488"/>
        <path fill="#2A617D" d="M24 154.343l-.526.657s-5.429-.197-5.474-.788L19.714 153 24 154.343"/>
        <path fill="#EEA886" d="M59.666 91s-2.764 2.307-3.55 2.119c-.787-.188 2.71 4.881 2.71 4.881s3.33-3.222 4.08-3.32c.75-.097-3.24-3.68-3.24-3.68"/>
        <path fill="#D4D8E8" d="M60.934 101.192c-.862.541-1.007.715-.906 3.278.1 2.562 1.124 4.627 1.199 5.333.076.706 1.446 7.709 1.823 8.1.378.393 4.89-.52 5.802-.814 1.366-.44 7.148-2.474 7.148-2.474l-1.272-2.756s-7.298 1.692-7.534 1.099c-.234-.592-.805-5.57-1.007-6.65-.201-1.081.15-2.78-1.093-5.344-1.113-2.295-4.16.228-4.16.228"/>
        <path fill="#326EA0" d="M52.536 118.615s1.535 1.64 1.965 2.172c2.94 3.648 6.944 10.346 7.443 11.516.5 1.17-2.474 9.444-3.696 12.334-.641 1.517-4.88 11.96-4.746 12.193.133.234-4.483.389-6.548-.68 0 0 2.969-8.83 3.594-10.56.945-2.614 4.219-9.854 4.319-10.555.1-.703-5.294-6.491-7.092-7.594-1.799-1.104-6.194-5.015-6.694-5.516-.5-.502-3.33-1.839-3.063-4.38.266-2.54 2.147-4.545 2.147-4.545l12.371 5.615"/>
        <path fill="#326EA0" d="M44.388 125.514l-.71 1.81c-.89 2.268-2.326 5.927-2.565 6.506-.35.85-2.098 4.515-2.937 5.228-.84.713-14.651 16.802-14.687 16.937-.034.136-5.175-2.444-5.489-3.429 0 0 7.482-9.47 8.636-10.86 1.154-1.392 3.567-3.463 4.371-6.756.805-3.292 6.573-15.953 6.59-16.428 0 0 .929-3.903 2.274-5.091 1.347-1.188 6.242.203 7.012 2.68.769 2.48-2.495 9.403-2.495 9.403"/>
        <path fill="#D4D8E8" d="M56 94.246L57.204 94s3.04.362 4.796 1.623l-.15.377s-4.637-.52-5.85-1.754"/>
        <path fill="#A9ADBA" d="M62 110.373c-.246.224-.444.383-.57.456-.087.049-.192.106-.313.17l-.002.001-.115-3 .662 1.327c.086.173.338 1.046.338 1.046"/>
        <path fill="#215B8A" d="M42 125.836L41.626 128c-.495-1.256-1.626-6-1.626-6 .074.116.31.605.365.713.054.11 1.635 3.123 1.635 3.123"/>
        <path fill="#EEA886" d="M65.987 90.811c.062-.245-.09-1.183-.584-.65-.495.535-.493 1.732-.214 1.83.28.097.639-.557.798-1.18"/>
        <path fill="#E8734D" d="M64 83.376S62.011 80.627 62 90l2-6.624"/>
        <path fill="#D4D8E8" d="M60.177 109.626c-.203.319-.368.546-.473.65-.072.07-.159.15-.26.242l-.001.001c-.962.864-3.12 2.542-4.118 3.15-1.102.673-3.193 6.331-3.193 6.331s-9.864-.746-12.132-6.472c0 0 1.607-4.03 3.072-6.415 1.464-2.386 4.677-10.976 6.378-12.195 1.701-1.219 3.166-2.015 6.521-1.908 3.355.106 5.214 3.093 5.214 3.093s2.551 3.075 2.803 4.7c.217 1.4-2.553 6.857-3.81 8.823"/>
        <path fill="#4DA8F2" d="M94 44.501L93.925 47H51l.074-2.499c0-2.486 1.925-4.501 4.3-4.501H89.7c2.375 0 4.3 2.015 4.3 4.501"/>
        <path fill="#78C2FF" d="M55.915 48.663c-.706 0-1.28.6-1.28 1.336V67c0 .737.574 1.336 1.28 1.336h8.17c.706 0 1.28-.599 1.28-1.336V50c0-.737-.574-1.336-1.28-1.336h-8.17zM64.085 69h-8.17C54.859 69 54 68.103 54 67.001V50c0-1.102.859-1.999 1.915-1.999h8.17C65.14 48 66 48.897 66 49.999V67C66 68.103 65.14 69 64.085 69zM90.325 51h-20.65c-.373 0-.675-.336-.675-.75v-.499c0-.414.302-.751.674-.751h20.651c.373 0 .675.337.675.751v.498c0 .415-.302.751-.675.751M90.325 54h-20.65c-.373 0-.675-.336-.675-.75v-.499c0-.414.302-.751.674-.751h20.651c.373 0 .675.337.675.751v.498c0 .415-.302.751-.675.751"/>
        <path fill="#6EB2EB" d="M140.938 99H127.06c-.586 0-1.061-.334-1.061-.747v-1.507c0-.412.475-.746 1.061-.746h13.877c.586 0 1.062.334 1.062.746v1.507c0 .413-.476.747-1.062.747"/>
        <path fill="#4DA8F2" d="M140.938 105H127.06c-.586 0-1.061-.334-1.061-.747v-1.507c0-.412.475-.746 1.061-.746h13.877c.586 0 1.062.334 1.062.746v1.507c0 .413-.476.747-1.062.747"/>
        <path fill="#2273B5" d="M140.938 113H127.06c-.586 0-1.061-.334-1.061-.747v-1.506c0-.413.475-.747 1.061-.747h13.877c.586 0 1.062.334 1.062.747v1.506c0 .413-.476.747-1.062.747"/>
        <path fill="#E3F2FF" d="M56 43.5a1.5 1.5 0 1 1-3 0 1.5 1.5 0 0 1 3 0"/>
        <path fill="#2273B5" d="M197 108.11s7.47 2.237 9.195 1.844c.912-.21 2.337-1.41 3.662-2.703.219-.215.435-.432.647-.647 1.46-1.491 2.653-2.913 2.653-2.913s3.618-3.937.715-5.691c0 0-1.281.112-2.25 1.075-.968.963-1.876 2.498-2.13 3.011-.253.514-3.806 5.272-3.991 5.38-.184.106-1.737-.273-2.982-.369-2.03-.157-5.068-1.118-5.068-1.118l-.451 2.13"/>
        <path fill="#16202E" d="M207.642 155s-.9 2.038-1.434 2.45c-.665.515-1.957 2.166-2.409 2.243-.45.075-2.072.44-1.76 1.6.257.951 4.126.814 4.562.338.437-.477 1.741-2.186 2.268-2.148.527.038.331 2.466.331 2.466h.572s.199-2.363.223-2.769c.071-1.202-.605-2.087-.635-2.773-.03-.685-.061-1.197-.061-1.197l-1.657-.21"/>
        <path fill="#EEA886" d="M204 157.875s1.542.337 2.73-.095c1.186-.431 3.464-1.086 4.27-1.09 0 0-.44-.85-.448-.946l-.057-.542-1.992-.202s-1.292 1.2-1.862 1.482c-.57.282-2.027.986-2.641 1.393M224.232 156.4s-.126 1.11-.262 1.414c-.137.303-.513 1.846-.684 2.134-.171.288-.547 2.452 0 2.711.547.26 1.835.693 2.268-.172.433-.866.49-1.731.422-2.395-.069-.663-.589-3.708-.581-4.01.007-.3-1.163.318-1.163.318"/>
        <path fill="#16202E" d="M223.625 160s-.054 1.333.882 1.333 1.351-1.213 1.351-1.213.32.596 0 1.865c-.32 1.27-1.65 1.007-1.947.961-.298-.045-1.71-.447-.286-2.946"/>
        <path fill="#1A598C" d="M221.399 114.77s1.852 2.238 2.505 3.719c.654 1.48 1.743 4.726 1.598 7.24-.145 2.514-1.017 7.233-.763 8.3.255 1.068.508 3.272.781 4.03.273.757 1.361 2.962 1.47 5.234.11 2.273-.774 12.244-.702 13.174.073.93-3.172.361-3.172.361s-.083-8.988-.446-10.538c-.364-1.55-.8-6.82-1.126-7.199-.326-.378-1.244-4.373-1.303-5.026-.057-.63-3.942-11.553-4.159-13.413-.218-1.86-5.082-5.883-5.082-5.883s4.771-1.73 10.399 0"/>
        <path fill="#1A598C" d="M209.378 155.97c.662-.105 2.431-10.362 2.222-12.185-.209-1.823-.417-5.711.175-7.291.387-1.038 2.81-6.314 4.441-10.019.23-.523.444-1.014.634-1.458.518-1.205.86-2.06.869-2.236.036-.701 2.301-12.782-6.653-7.407 0 0-.091.955-.195 1.305-.106.35-2.504 9.293-2.747 12.73-.244 3.435-.87 6.35-.973 7.085-.105.734.104 3.189.312 3.82.209.63-1.356 14.881-1.46 15.233-.104.35 2.716.528 3.375.423"/>
        <path fill="#EDDAD3" d="M215.247 97.088s-1.557.8-2.097.917c-.54.117-2.638 3.078-3.006 4.16-.368 1.08 0 2.702.756 4.607.756 1.904.042 2.539.388 4.443.345 1.903.647 5.935.582 6.992-.065 1.058 8.742 1.26 10.752-.667 0 0-2.019-3.29-2.278-3.76-.26-.471-.043-3.033.195-3.691.238-.659 1.923-6.096 1.923-6.096s1.194-4.458.024-5.446c-1.015-.858-3.784-1.165-4.28-1.352-.498-.189-1.944-.271-2.96-.107"/>
        <path fill="#D6C5BE" d="M214.954 100l-.954-.826.83-2.174s.277 1.21.124 3"/>
        <path fill="#EEA886" d="M216 93.37s.251 3.179.199 4.214c0 0 1.31 1.805 2.801-2.105 0 0-.627-1.612-.155-3.808.473-2.195-2.845 1.699-2.845 1.699M214.001 98l-.001 2 2-1.878-1.999-.122"/>
        <path fill="#D6C5BE" d="M216 100l.55-.808L218.4 97l.6.686-3 2.314"/>
        <path fill="#2273B5" d="M218.635 119.408c.773 3.818 6.365-.43 6.365-.43s-3.626-6.287-2.183-11.312l.034-.118c.092-.318.185-.62.276-.907l.05-.154c.314-.988.572-1.805.78-2.477.645-2.069.831-2.75.831-2.75s-.276-3.22-1.816-3.572A157.532 157.532 0 0 0 219.79 97s-2.67 3.534-2.781 5.123c-.11 1.587.853 13.466 1.626 17.285M211.004 102.265s-.118 2.194.876 5.075c0 0-.021 3.857-.052 5.201-.032 1.344-.243 6.424-.243 6.424l1.092.97c.22.195.492-.075.461-.46-.308-3.866-1.311-18.533.862-22.475l-.968.507s-2.028 3.224-2.028 4.758"/>
        <path fill="#FAE6DE" d="M214.184 98.798L213 99l2-2-.816 1.798M217 98.935l.657 1.065L219 97.235l-.428-.235L217 98.935"/>
        <path fill="#EEA886" d="M215.381 85.015c-1.138-.112-3.696.35-4.229 3.416 0 0 .053.835.22 1.499.167.662-.496 2.56-.351 2.663.145.102.758.253.758.253s.568 2.136 1.293 2.154c.725.017 3.493-.428 4.907-2.983 1.413-2.555 2-6.551-2.598-7.002"/>
        <path fill="#344052" d="M211.007 88.814s1.764 1.344 3.56 1.685c1.798.34 2.77 3.501 2.77 3.501s3.014-4.58.926-7.512c-2.088-2.933-7.484-1.2-7.256 2.326"/>
        <path fill="#EEA886" d="M216.055 90.518c.021-.32.356-.787.8-.322.444.465-.241 1.96-.614 1.79-.373-.17-.208-1.135-.186-1.468"/>
        <path fill="#A77860" d="M214 95.239c.034.223.068.484.096.761 1.25-.88 1.904-2 1.904-2-.723.733-2 1.239-2 1.239"/>
        <path fill="#E4F2FE" d="M203.507 116h-.012l-5.495-.027a7.471 7.471 0 0 0 1.382-4.34v-2.514c2 .56 4.55 1.192 5.869 1.192.208 0 .386-.016.526-.05.051-.013.104-.03.16-.049l-.018 3.397a2.408 2.408 0 0 1-2.412 2.391m1.448-8.398c-.433 0-1.769-.325-2.865-.416-.827-.069-1.82-.28-2.708-.506V95.197c.185-.064.368-.13.55-.197l3.667.018A2.409 2.409 0 0 1 206 97.434l-.045 8.985c-.47.66-.82 1.13-.875 1.163-.022.014-.065.02-.125.02"/>
        <path fill="#DCEAF6" d="M198.045 94.665v-.33l.91.004c-.302.11-.605.22-.91.326"/>
        <path fill="#CBE7FD" d="M198.595 116l-19.154-.093c-1.355-.006-2.448-1.087-2.441-2.414l.006-1.137h13.212c1.86 0 3.368-1.477 3.368-3.3V95l6.414.031v11.679c-1.322-.332-2.416-.697-2.416-.697l-.46 2.292s1.261.4 2.876.843v2.514c0 1.615-.52 3.112-1.405 4.338"/>
        <path fill="#D1EAFF" d="M189.546 112H176l.078-15.53c.007-1.367 1.132-2.47 2.515-2.47h.012l14.395.07v14.521c0 1.883-1.546 3.409-3.454 3.409"/>
        <path fill="#C5DFF5" d="M205.326 111c-1.263 0-3.704-.438-5.618-.826-1.52-.308-2.708-.585-2.708-.585l.433-1.589s1.03.253 2.275.483c.85.157 1.8.304 2.592.351 1.05.063 2.328.289 2.743.289a.342.342 0 0 0 .12-.014c.052-.024.386-.35.837-.807l-.018 2.63a2.18 2.18 0 0 1-.153.033 2.978 2.978 0 0 1-.503.035"/>
        <path fill="#A1D4FF" d="M190.611 113.938l12.692.062c.894.004 1.623-.7 1.628-1.573L205 98.65c.004-.872-.717-1.583-1.61-1.588L190.695 97c-.893-.004-1.622.7-1.627 1.573L189 112.35c-.005.873.717 1.584 1.611 1.588M180.44 113.973l7.109.027c.243 0 .442-.15.443-.337l.008-1.295c.001-.188-.195-.34-.438-.34l-7.11-.028c-.244 0-.442.15-.443.337l-.009 1.295c0 .188.195.34.44.34M180.24 111.954l7.517.046c.133 0 .241-.133.242-.3l.001-.35c0-.168-.106-.303-.24-.303l-7.518-.047c-.132-.001-.24.133-.24.3l-.002.352c-.001.166.106.301.24.302"/>
        <path fill="#EEA886" d="M207.503 110.508s-.204.052-.36-.028c-.27-.137-.446-.586-.85-.457-.403.129-.32 1.57-.166 1.81.155.241.75.242 1.556-.134s-.18-1.19-.18-1.19"/>
        <path fill="#EEA886" d="M207.197 109.083s-1.084-.08-2.304-.083c-1.072-.002-2.311.112-2.392.235-.09.138 1.076.096 2.14.14.979.04.78.127.78.127s.054-.027-1.022.05c-1.157.082-2.324.233-2.391.386-.033.075.021.115.452.126-.248.024-.269.068-.257.13.06.316 1.8.35 2.491.363-.53-.008-.92.019-.666.204.292.211 2.753.195 3.638.238.965.047-.469-1.916-.469-1.916"/>
        <path fill="#344052" d="M218.199 89.042c-.412 1.57-.163 3.271.556 3.8.718.53 1.635-.314 2.046-1.884.412-1.57.163-3.27-.556-3.8-.718-.529-1.635.315-2.046 1.884"/>
        <path fill="#2273B5" d="M223.378 97s-1.54.288-2.3 1.492c-.762 1.204-1.541 2.918-1.69 3.512-.15.595-3.036 6.053-3.197 6.2-.16.149-1.752.025-2.987.148-2.017.2-5.173-.276-5.173-.276l-.031 2.358s7.739 1.037 9.35.303c1.969-.897 6.734-7.646 6.734-7.646s2.472-4.743-.706-6.091"/>
        <path fill="#1A598C" d="M219 109l2.38-3c.25-1.197.454-2.186.62-3 0 0-2.412 4.974-3 6M210.297 106c.238-.182.473-.367.703-.549 0 0-.894-1.722-.952-2.451 0 0-.21 1.629.249 3"/>
        <path fill="#73C0FF" d="M184.384 101.97a2.623 2.623 0 1 1-1.768-4.94 2.623 2.623 0 0 1 1.768 4.94zm2.41-3.648a3.5 3.5 0 0 0-4.472-2.116 3.492 3.492 0 0 0-2.162 2.25 3.479 3.479 0 0 0 .132 2.44 3.498 3.498 0 0 0 6.503-2.574z"/>
        <path fill="#73C0FF" d="M181.513 99l-.513-.192c.194-.744.667-1.375 1.325-1.658.218-.093.44-.142.659-.15l.016.645c-.164.005-.33.042-.494.112-.494.212-.848.685-.993 1.243M180 101.714l-.734.286a2.577 2.577 0 0 1-.12-2l.764.214a1.935 1.935 0 0 0 .09 1.5M181.449 103a2.85 2.85 0 0 1-.449-.714l.664-.286c.087.198.2.377.336.535l-.551.465M182.252 105.706a.749.749 0 0 1-.94-.407l-.018-.047a.748.748 0 0 1 1.412-.505.75.75 0 0 1-.454.959zm.69-1.043a1 1 0 1 0-1.883.674l.024.062a1 1 0 0 0 1.858-.735z"/>
        <path fill="#73C0FF" d="M181.256 105l-.256-.096c.097-.373.333-.687.663-.829a.904.904 0 0 1 .329-.075l.008.323a.688.688 0 0 0-.247.055c-.247.106-.424.343-.497.622M179.878 105.857l-.554.143-.06-.09a.884.884 0 0 1-.03-.91l.577.107a.665.665 0 0 0 .023.682l.044.068"/>
        <path fill="#73C0FF" d="M179.457 105.921a2.403 2.403 0 0 1-.375-.602l.554-.24c.074.167.168.318.282.45l-.461.392"/>
        <path fill="#78C2FF" d="M69 70h2v-9h-2zM73 70h2V60h-2zM77 69h2v-8h-2zM80 70h2V58h-2zM83 71h2V59h-2z"/>
    </g>
</svg>
